<svg width="150" height="164" viewBox="0 0 150 164" fill="none" xmlns="http://www.w3.org/2000/svg">
<g clip-path="url(#clip0_105_2)">
<path opacity="0.955" fill-rule="evenodd" clip-rule="evenodd" d="M121.5 -0.5C130.5 -0.5 139.5 -0.5 148.5 -0.5C148.5 53.5 148.5 107.5 148.5 161.5C137.252 161.821 126.085 161.487 115 160.5C114.5 126.168 114.333 91.835 114.5 57.5C101.167 57.5 87.8333 57.5 74.5 57.5C74.5 48.8333 74.5 40.1667 74.5 31.5C91.3585 33.4694 105.192 28.1361 116 15.5C118.934 10.5314 120.767 5.19812 121.5 -0.5Z" fill="black"/>
<path opacity="0.833" fill-rule="evenodd" clip-rule="evenodd" d="M74.5 71.5C80.8333 71.5 87.1667 71.5 93.5 71.5C93.5 76.8333 93.5 82.1667 93.5 87.5C87.1667 87.5 80.8333 87.5 74.5 87.5C74.5 82.1667 74.5 76.8333 74.5 71.5Z" fill="black"/>
<path opacity="0.914" fill-rule="evenodd" clip-rule="evenodd" d="M40.5 163.5C35.8333 163.5 31.1667 163.5 26.5 163.5C6.78267 156.095 -1.71733 141.762 0.99997 120.5C9.52285 96.6626 25.6895 89.1626 49.5 98C61.4535 106.747 66.7869 118.581 65.5 133.5C50.1667 133.5 34.8333 133.5 19.5 133.5C21.182 146.852 28.5154 151.352 41.5 147C43.9757 145.691 45.9757 143.858 47.5 141.5C53.1667 140.167 58.8333 140.167 64.5 141.5C60.2175 152.961 52.2175 160.295 40.5 163.5ZM31.5 108.5C39.5859 108.036 44.5859 111.703 46.5 119.5C37.5 120.833 28.5 120.833 19.5 119.5C21.1223 113.053 25.1223 109.387 31.5 108.5Z" fill="black"/>
<path opacity="0.893" fill-rule="evenodd" clip-rule="evenodd" d="M75.5 95.5C81.2419 95.3077 87.0753 95.641 93 96.5C93.5 118.164 93.6666 139.831 93.5 161.5C87.2424 161.81 81.0758 161.476 75 160.5C74.1787 138.761 74.3454 117.094 75.5 95.5Z" fill="black"/>
</g>
<defs>
<clipPath id="clip0_105_2">
<rect width="150" height="164" fill="white"/>
</clipPath>
</defs>
</svg>
