<svg xmlns="http://www.w3.org/2000/svg" xmlns:xlink="http://www.w3.org/1999/xlink" width="500" zoomAndPan="magnify" viewBox="0 0 375 374.999991" height="500" preserveAspectRatio="xMidYMid meet" version="1.0"><defs><g/><clipPath id="165ec4ce4a"><rect x="0" width="201" y="0" height="61"/></clipPath><clipPath id="2c46291f23"><path d="M 0.121094 0.28125 L 174 0.28125 L 174 69 L 0.121094 69 Z M 0.121094 0.28125 " clip-rule="nonzero"/></clipPath><clipPath id="074c7aaf3a"><path d="M 60 13 L 205.800781 13 L 205.800781 113.320312 L 60 113.320312 Z M 60 13 " clip-rule="nonzero"/></clipPath><clipPath id="66174c8bb7"><rect x="0" width="206" y="0" height="114"/></clipPath></defs><rect x="-37.5" width="450" fill="#ffffff" y="-37.499999" height="449.999989" fill-opacity="1"/><rect x="-37.5" width="450" fill="#062c66" y="-37.499999" height="449.999989" fill-opacity="1"/><g transform="matrix(1, 0, 0, 1, 82, 185)"><g clip-path="url(#165ec4ce4a)"><g fill="#ffffff" fill-opacity="1"><g transform="translate(0.624372, 19.512933)"><g><path d="M 5.8125 -18.25 L 5.8125 0 L 1.65625 0 L 1.65625 -18.25 Z M 5.8125 -18.25 "/></g></g></g><g fill="#ffffff" fill-opacity="1"><g transform="translate(8.918117, 19.512933)"><g><path d="M 1.65625 0 L 1.65625 -18.25 L 13.078125 -8.84375 L 13.125 -18.25 L 17.28125 -18.25 L 17.28125 0 L 5.8125 -9.375 L 5.8125 0 Z M 1.65625 0 "/></g></g></g><g fill="#ffffff" fill-opacity="1"><g transform="translate(28.667512, 19.512933)"><g><path d="M 12.015625 -18.25 L 12.015625 -14.609375 L 5.59375 -14.609375 L 5.59375 -10.96875 L 11.53125 -10.96875 L 11.53125 -7.328125 L 5.59375 -7.328125 L 5.59375 0 L 1.4375 0 L 1.4375 -18.25 Z M 12.015625 -18.25 "/></g></g></g><g fill="#ffffff" fill-opacity="1"><g transform="translate(42.932348, 19.512933)"><g><path d="M 5.8125 -18.25 L 5.8125 0 L 1.65625 0 L 1.65625 -18.25 Z M 5.8125 -18.25 "/></g></g></g><g fill="#ffffff" fill-opacity="1"><g transform="translate(51.226093, 19.512933)"><g><path d="M 1.65625 0 L 1.65625 -18.25 L 13.078125 -8.84375 L 13.125 -18.25 L 17.28125 -18.25 L 17.28125 0 L 5.8125 -9.375 L 5.8125 0 Z M 1.65625 0 "/></g></g></g><g fill="#ffffff" fill-opacity="1"><g transform="translate(70.983639, 19.512933)"><g/></g></g><g fill="#ffffff" fill-opacity="1"><g transform="translate(0.624372, 52.261974)"><g><path d="M 16.421875 -0.546875 C 16.421875 -0.546875 16.253906 -0.472656 15.921875 -0.328125 C 15.585938 -0.179688 15.035156 -0.0351562 14.265625 0.109375 C 13.503906 0.253906 12.46875 0.328125 11.15625 0.328125 C 9.851562 0.328125 8.609375 0.0859375 7.421875 -0.390625 C 6.242188 -0.878906 5.191406 -1.554688 4.265625 -2.421875 C 3.335938 -3.285156 2.601562 -4.285156 2.0625 -5.421875 C 1.53125 -6.566406 1.265625 -7.789062 1.265625 -9.09375 C 1.265625 -10.40625 1.53125 -11.628906 2.0625 -12.765625 C 2.59375 -13.910156 3.320312 -14.921875 4.25 -15.796875 C 5.175781 -16.671875 6.234375 -17.351562 7.421875 -17.84375 C 8.609375 -18.332031 9.851562 -18.578125 11.15625 -18.578125 C 12.46875 -18.578125 13.503906 -18.503906 14.265625 -18.359375 C 15.035156 -18.210938 15.585938 -18.066406 15.921875 -17.921875 C 16.253906 -17.773438 16.421875 -17.703125 16.421875 -17.703125 L 15.53125 -13.609375 C 15.53125 -13.609375 15.363281 -13.679688 15.03125 -13.828125 C 14.695312 -13.972656 14.25 -14.117188 13.6875 -14.265625 C 13.132812 -14.410156 12.503906 -14.484375 11.796875 -14.484375 C 10.742188 -14.484375 9.835938 -14.320312 9.078125 -14 C 8.316406 -13.675781 7.6875 -13.25 7.1875 -12.71875 C 6.695312 -12.1875 6.335938 -11.609375 6.109375 -10.984375 C 5.890625 -10.359375 5.78125 -9.742188 5.78125 -9.140625 C 5.78125 -8.515625 5.890625 -7.890625 6.109375 -7.265625 C 6.335938 -6.640625 6.695312 -6.0625 7.1875 -5.53125 C 7.6875 -5 8.316406 -4.570312 9.078125 -4.25 C 9.835938 -3.925781 10.742188 -3.765625 11.796875 -3.765625 C 12.503906 -3.765625 13.132812 -3.835938 13.6875 -3.984375 C 14.25 -4.128906 14.695312 -4.273438 15.03125 -4.421875 C 15.363281 -4.566406 15.53125 -4.640625 15.53125 -4.640625 Z M 16.421875 -0.546875 "/></g></g></g><g fill="#ffffff" fill-opacity="1"><g transform="translate(19.091087, 52.261974)"><g><path d="M 5.46875 -9.140625 C 5.46875 -8.191406 5.691406 -7.320312 6.140625 -6.53125 C 6.585938 -5.75 7.191406 -5.117188 7.953125 -4.640625 C 8.722656 -4.160156 9.582031 -3.921875 10.53125 -3.921875 C 11.476562 -3.921875 12.328125 -4.160156 13.078125 -4.640625 C 13.835938 -5.117188 14.441406 -5.75 14.890625 -6.53125 C 15.347656 -7.320312 15.578125 -8.191406 15.578125 -9.140625 C 15.578125 -10.078125 15.347656 -10.941406 14.890625 -11.734375 C 14.441406 -12.523438 13.835938 -13.15625 13.078125 -13.625 C 12.328125 -14.101562 11.476562 -14.34375 10.53125 -14.34375 C 9.582031 -14.34375 8.722656 -14.101562 7.953125 -13.625 C 7.191406 -13.15625 6.585938 -12.523438 6.140625 -11.734375 C 5.691406 -10.941406 5.46875 -10.078125 5.46875 -9.140625 Z M 1.328125 -9.140625 C 1.328125 -10.421875 1.5625 -11.628906 2.03125 -12.765625 C 2.507812 -13.898438 3.164062 -14.90625 4 -15.78125 C 4.84375 -16.664062 5.820312 -17.351562 6.9375 -17.84375 C 8.050781 -18.332031 9.25 -18.578125 10.53125 -18.578125 C 11.8125 -18.578125 13.007812 -18.332031 14.125 -17.84375 C 15.238281 -17.351562 16.210938 -16.664062 17.046875 -15.78125 C 17.878906 -14.90625 18.53125 -13.898438 19 -12.765625 C 19.476562 -11.628906 19.71875 -10.421875 19.71875 -9.140625 C 19.71875 -7.859375 19.476562 -6.644531 19 -5.5 C 18.53125 -4.351562 17.878906 -3.34375 17.046875 -2.46875 C 16.210938 -1.601562 15.238281 -0.921875 14.125 -0.421875 C 13.007812 0.078125 11.8125 0.328125 10.53125 0.328125 C 9.25 0.328125 8.050781 0.078125 6.9375 -0.421875 C 5.820312 -0.921875 4.84375 -1.601562 4 -2.46875 C 3.164062 -3.34375 2.507812 -4.351562 2.03125 -5.5 C 1.5625 -6.644531 1.328125 -7.859375 1.328125 -9.140625 Z M 1.328125 -9.140625 "/></g></g></g><g fill="#ffffff" fill-opacity="1"><g transform="translate(40.941406, 52.261974)"><g><path d="M 1.65625 0 L 1.65625 -18.25 L 13.078125 -8.84375 L 13.125 -18.25 L 17.28125 -18.25 L 17.28125 0 L 5.8125 -9.375 L 5.8125 0 Z M 1.65625 0 "/></g></g></g><g fill="#ffffff" fill-opacity="1"><g transform="translate(60.690801, 52.261974)"><g><path d="M 3.25 -5.578125 C 3.71875 -5.234375 4.265625 -4.914062 4.890625 -4.625 C 5.523438 -4.34375 6.160156 -4.117188 6.796875 -3.953125 C 7.429688 -3.796875 8.015625 -3.722656 8.546875 -3.734375 C 9.085938 -3.753906 9.523438 -3.882812 9.859375 -4.125 C 10.191406 -4.363281 10.359375 -4.757812 10.359375 -5.3125 C 10.359375 -5.800781 10.171875 -6.234375 9.796875 -6.609375 C 9.429688 -6.984375 8.957031 -7.335938 8.375 -7.671875 C 7.800781 -8.003906 7.191406 -8.335938 6.546875 -8.671875 C 5.898438 -9.015625 5.285156 -9.390625 4.703125 -9.796875 C 4.128906 -10.203125 3.660156 -10.664062 3.296875 -11.1875 C 2.941406 -11.707031 2.765625 -12.316406 2.765625 -13.015625 C 2.765625 -13.796875 2.929688 -14.554688 3.265625 -15.296875 C 3.597656 -16.046875 4.085938 -16.695312 4.734375 -17.25 C 5.378906 -17.800781 6.171875 -18.191406 7.109375 -18.421875 C 8.046875 -18.660156 9.125 -18.664062 10.34375 -18.4375 C 11.5625 -18.207031 12.90625 -17.679688 14.375 -16.859375 L 12.703125 -13.546875 C 12.003906 -14.128906 11.3125 -14.515625 10.625 -14.703125 C 9.945312 -14.890625 9.316406 -14.925781 8.734375 -14.8125 C 8.160156 -14.695312 7.703125 -14.488281 7.359375 -14.1875 C 7.015625 -13.882812 6.84375 -13.546875 6.84375 -13.171875 C 6.84375 -12.828125 7.03125 -12.519531 7.40625 -12.25 C 7.789062 -11.976562 8.289062 -11.703125 8.90625 -11.421875 C 9.519531 -11.148438 10.171875 -10.847656 10.859375 -10.515625 C 11.554688 -10.179688 12.207031 -9.789062 12.8125 -9.34375 C 13.425781 -8.894531 13.925781 -8.363281 14.3125 -7.75 C 14.707031 -7.144531 14.90625 -6.410156 14.90625 -5.546875 C 14.90625 -4.679688 14.671875 -3.84375 14.203125 -3.03125 C 13.734375 -2.21875 13.078125 -1.515625 12.234375 -0.921875 C 11.390625 -0.335938 10.390625 0.046875 9.234375 0.234375 C 8.085938 0.429688 6.832031 0.359375 5.46875 0.015625 C 4.101562 -0.316406 2.671875 -1.015625 1.171875 -2.078125 Z M 3.25 -5.578125 "/></g></g></g><g fill="#ffffff" fill-opacity="1"><g transform="translate(77.565219, 52.261974)"><g><path d="M 15.8125 -18.25 L 15.8125 -6.484375 C 15.8125 -4.222656 15.203125 -2.519531 13.984375 -1.375 C 12.773438 -0.238281 11.007812 0.328125 8.6875 0.328125 C 6.363281 0.328125 4.597656 -0.238281 3.390625 -1.375 C 2.179688 -2.519531 1.578125 -4.222656 1.578125 -6.484375 L 1.578125 -18.25 L 5.734375 -18.25 L 5.734375 -7.703125 C 5.734375 -6.679688 5.832031 -5.882812 6.03125 -5.3125 C 6.238281 -4.738281 6.5625 -4.335938 7 -4.109375 C 7.445312 -3.878906 8.007812 -3.765625 8.6875 -3.765625 C 9.375 -3.765625 9.929688 -3.878906 10.359375 -4.109375 C 10.796875 -4.335938 11.117188 -4.738281 11.328125 -5.3125 C 11.546875 -5.882812 11.65625 -6.679688 11.65625 -7.703125 L 11.65625 -18.25 Z M 15.8125 -18.25 "/></g></g></g><g fill="#ffffff" fill-opacity="1"><g transform="translate(95.744429, 52.261974)"><g><path d="M 5.625 -18.25 L 5.625 -3.65625 L 11.90625 -3.65625 L 11.90625 0 L 1.453125 0 L 1.453125 -18.25 Z M 5.625 -18.25 "/></g></g></g><g fill="#ffffff" fill-opacity="1"><g transform="translate(109.9208, 52.261974)"><g><path d="M 1.125 -14.609375 L 1.125 -18.25 L 13.953125 -18.25 L 13.953125 -14.609375 L 9.625 -14.609375 L 9.625 0 L 5.46875 0 L 5.46875 -14.609375 Z M 1.125 -14.609375 "/></g></g></g><g fill="#ffffff" fill-opacity="1"><g transform="translate(125.822157, 52.261974)"><g><path d="M 12.21875 -18.25 L 19.609375 0 L 15.140625 0 L 13.765625 -3.65625 L 6.8125 -3.65625 L 5.484375 0 L 1.015625 0 L 8.359375 -18.25 Z M 12.34375 -7.296875 L 10.265625 -12.609375 L 8.234375 -7.296875 Z M 12.34375 -7.296875 "/></g></g></g><g fill="#ffffff" fill-opacity="1"><g transform="translate(147.230185, 52.261974)"><g><path d="M 1.65625 0 L 1.65625 -18.25 L 13.078125 -8.84375 L 13.125 -18.25 L 17.28125 -18.25 L 17.28125 0 L 5.8125 -9.375 L 5.8125 0 Z M 1.65625 0 "/></g></g></g><g fill="#ffffff" fill-opacity="1"><g transform="translate(166.97958, 52.261974)"><g><path d="M 1.125 -14.609375 L 1.125 -18.25 L 13.953125 -18.25 L 13.953125 -14.609375 L 9.625 -14.609375 L 9.625 0 L 5.46875 0 L 5.46875 -14.609375 Z M 1.125 -14.609375 "/></g></g></g><g fill="#ffffff" fill-opacity="1"><g transform="translate(182.880937, 52.261974)"><g><path d="M 3.25 -5.578125 C 3.71875 -5.234375 4.265625 -4.914062 4.890625 -4.625 C 5.523438 -4.34375 6.160156 -4.117188 6.796875 -3.953125 C 7.429688 -3.796875 8.015625 -3.722656 8.546875 -3.734375 C 9.085938 -3.753906 9.523438 -3.882812 9.859375 -4.125 C 10.191406 -4.363281 10.359375 -4.757812 10.359375 -5.3125 C 10.359375 -5.800781 10.171875 -6.234375 9.796875 -6.609375 C 9.429688 -6.984375 8.957031 -7.335938 8.375 -7.671875 C 7.800781 -8.003906 7.191406 -8.335938 6.546875 -8.671875 C 5.898438 -9.015625 5.285156 -9.390625 4.703125 -9.796875 C 4.128906 -10.203125 3.660156 -10.664062 3.296875 -11.1875 C 2.941406 -11.707031 2.765625 -12.316406 2.765625 -13.015625 C 2.765625 -13.796875 2.929688 -14.554688 3.265625 -15.296875 C 3.597656 -16.046875 4.085938 -16.695312 4.734375 -17.25 C 5.378906 -17.800781 6.171875 -18.191406 7.109375 -18.421875 C 8.046875 -18.660156 9.125 -18.664062 10.34375 -18.4375 C 11.5625 -18.207031 12.90625 -17.679688 14.375 -16.859375 L 12.703125 -13.546875 C 12.003906 -14.128906 11.3125 -14.515625 10.625 -14.703125 C 9.945312 -14.890625 9.316406 -14.925781 8.734375 -14.8125 C 8.160156 -14.695312 7.703125 -14.488281 7.359375 -14.1875 C 7.015625 -13.882812 6.84375 -13.546875 6.84375 -13.171875 C 6.84375 -12.828125 7.03125 -12.519531 7.40625 -12.25 C 7.789062 -11.976562 8.289062 -11.703125 8.90625 -11.421875 C 9.519531 -11.148438 10.171875 -10.847656 10.859375 -10.515625 C 11.554688 -10.179688 12.207031 -9.789062 12.8125 -9.34375 C 13.425781 -8.894531 13.925781 -8.363281 14.3125 -7.75 C 14.707031 -7.144531 14.90625 -6.410156 14.90625 -5.546875 C 14.90625 -4.679688 14.671875 -3.84375 14.203125 -3.03125 C 13.734375 -2.21875 13.078125 -1.515625 12.234375 -0.921875 C 11.390625 -0.335938 10.390625 0.046875 9.234375 0.234375 C 8.085938 0.429688 6.832031 0.359375 5.46875 0.015625 C 4.101562 -0.316406 2.671875 -1.015625 1.171875 -2.078125 Z M 3.25 -5.578125 "/></g></g></g></g></g><g fill="#ffffff" fill-opacity="1"><g transform="translate(82.624372, 260.376926)"><g><path d="M 4.765625 -9.390625 L 5.75 -9.390625 L 10 0 L 8.859375 0 L 7.78125 -2.46875 L 2.703125 -2.46875 L 1.59375 0 L 0.515625 0 Z M 7.359375 -3.40625 L 5.25 -8.15625 L 3.109375 -3.40625 Z M 7.359375 -3.40625 "/></g></g></g><g fill="#ffffff" fill-opacity="1"><g transform="translate(93.873604, 260.376926)"><g><path d="M 4.25 0.15625 C 3.738281 0.15625 3.269531 0.0625 2.84375 -0.125 C 2.414062 -0.3125 2.039062 -0.566406 1.71875 -0.890625 C 1.40625 -1.222656 1.160156 -1.601562 0.984375 -2.03125 C 0.804688 -2.46875 0.71875 -2.925781 0.71875 -3.40625 L 0.71875 -3.4375 C 0.71875 -3.925781 0.804688 -4.382812 0.984375 -4.8125 C 1.160156 -5.25 1.40625 -5.628906 1.71875 -5.953125 C 2.039062 -6.285156 2.414062 -6.546875 2.84375 -6.734375 C 3.269531 -6.929688 3.738281 -7.03125 4.25 -7.03125 C 4.570312 -7.03125 4.863281 -7 5.125 -6.9375 C 5.394531 -6.875 5.640625 -6.785156 5.859375 -6.671875 C 6.085938 -6.566406 6.296875 -6.4375 6.484375 -6.28125 C 6.671875 -6.132812 6.84375 -5.972656 7 -5.796875 L 6.328125 -5.078125 C 6.046875 -5.367188 5.742188 -5.613281 5.421875 -5.8125 C 5.097656 -6.019531 4.703125 -6.125 4.234375 -6.125 C 3.890625 -6.125 3.566406 -6.054688 3.265625 -5.921875 C 2.960938 -5.785156 2.695312 -5.597656 2.46875 -5.359375 C 2.25 -5.117188 2.078125 -4.832031 1.953125 -4.5 C 1.828125 -4.175781 1.765625 -3.832031 1.765625 -3.46875 L 1.765625 -3.4375 C 1.765625 -3.0625 1.828125 -2.710938 1.953125 -2.390625 C 2.085938 -2.066406 2.265625 -1.78125 2.484375 -1.53125 C 2.710938 -1.289062 2.976562 -1.101562 3.28125 -0.96875 C 3.59375 -0.832031 3.929688 -0.765625 4.296875 -0.765625 C 4.742188 -0.765625 5.132812 -0.859375 5.46875 -1.046875 C 5.8125 -1.242188 6.125 -1.488281 6.40625 -1.78125 L 7.0625 -1.171875 C 6.707031 -0.773438 6.3125 -0.453125 5.875 -0.203125 C 5.4375 0.0351562 4.894531 0.15625 4.25 0.15625 Z M 4.25 0.15625 "/></g></g></g><g fill="#ffffff" fill-opacity="1"><g transform="translate(102.207398, 260.376926)"><g><path d="M 4.25 0.15625 C 3.738281 0.15625 3.269531 0.0625 2.84375 -0.125 C 2.414062 -0.3125 2.039062 -0.566406 1.71875 -0.890625 C 1.40625 -1.222656 1.160156 -1.601562 0.984375 -2.03125 C 0.804688 -2.46875 0.71875 -2.925781 0.71875 -3.40625 L 0.71875 -3.4375 C 0.71875 -3.925781 0.804688 -4.382812 0.984375 -4.8125 C 1.160156 -5.25 1.40625 -5.628906 1.71875 -5.953125 C 2.039062 -6.285156 2.414062 -6.546875 2.84375 -6.734375 C 3.269531 -6.929688 3.738281 -7.03125 4.25 -7.03125 C 4.570312 -7.03125 4.863281 -7 5.125 -6.9375 C 5.394531 -6.875 5.640625 -6.785156 5.859375 -6.671875 C 6.085938 -6.566406 6.296875 -6.4375 6.484375 -6.28125 C 6.671875 -6.132812 6.84375 -5.972656 7 -5.796875 L 6.328125 -5.078125 C 6.046875 -5.367188 5.742188 -5.613281 5.421875 -5.8125 C 5.097656 -6.019531 4.703125 -6.125 4.234375 -6.125 C 3.890625 -6.125 3.566406 -6.054688 3.265625 -5.921875 C 2.960938 -5.785156 2.695312 -5.597656 2.46875 -5.359375 C 2.25 -5.117188 2.078125 -4.832031 1.953125 -4.5 C 1.828125 -4.175781 1.765625 -3.832031 1.765625 -3.46875 L 1.765625 -3.4375 C 1.765625 -3.0625 1.828125 -2.710938 1.953125 -2.390625 C 2.085938 -2.066406 2.265625 -1.78125 2.484375 -1.53125 C 2.710938 -1.289062 2.976562 -1.101562 3.28125 -0.96875 C 3.59375 -0.832031 3.929688 -0.765625 4.296875 -0.765625 C 4.742188 -0.765625 5.132812 -0.859375 5.46875 -1.046875 C 5.8125 -1.242188 6.125 -1.488281 6.40625 -1.78125 L 7.0625 -1.171875 C 6.707031 -0.773438 6.3125 -0.453125 5.875 -0.203125 C 5.4375 0.0351562 4.894531 0.15625 4.25 0.15625 Z M 4.25 0.15625 "/></g></g></g><g fill="#ffffff" fill-opacity="1"><g transform="translate(110.541191, 260.376926)"><g><path d="M 4.28125 0.15625 C 3.769531 0.15625 3.296875 0.0625 2.859375 -0.125 C 2.421875 -0.3125 2.039062 -0.566406 1.71875 -0.890625 C 1.40625 -1.222656 1.160156 -1.601562 0.984375 -2.03125 C 0.804688 -2.457031 0.71875 -2.914062 0.71875 -3.40625 L 0.71875 -3.4375 C 0.71875 -3.925781 0.804688 -4.382812 0.984375 -4.8125 C 1.160156 -5.25 1.40625 -5.628906 1.71875 -5.953125 C 2.039062 -6.285156 2.421875 -6.546875 2.859375 -6.734375 C 3.304688 -6.929688 3.789062 -7.03125 4.3125 -7.03125 C 4.820312 -7.03125 5.296875 -6.929688 5.734375 -6.734375 C 6.179688 -6.546875 6.5625 -6.289062 6.875 -5.96875 C 7.195312 -5.644531 7.445312 -5.265625 7.625 -4.828125 C 7.800781 -4.398438 7.890625 -3.945312 7.890625 -3.46875 L 7.890625 -3.4375 C 7.890625 -2.945312 7.796875 -2.484375 7.609375 -2.046875 C 7.429688 -1.609375 7.179688 -1.222656 6.859375 -0.890625 C 6.546875 -0.566406 6.164062 -0.3125 5.71875 -0.125 C 5.28125 0.0625 4.800781 0.15625 4.28125 0.15625 Z M 4.3125 -0.765625 C 4.6875 -0.765625 5.023438 -0.832031 5.328125 -0.96875 C 5.640625 -1.113281 5.90625 -1.304688 6.125 -1.546875 C 6.351562 -1.785156 6.53125 -2.0625 6.65625 -2.375 C 6.78125 -2.695312 6.84375 -3.039062 6.84375 -3.40625 L 6.84375 -3.4375 C 6.84375 -3.8125 6.773438 -4.160156 6.640625 -4.484375 C 6.515625 -4.804688 6.335938 -5.085938 6.109375 -5.328125 C 5.878906 -5.578125 5.609375 -5.769531 5.296875 -5.90625 C 4.984375 -6.050781 4.644531 -6.125 4.28125 -6.125 C 3.914062 -6.125 3.578125 -6.050781 3.265625 -5.90625 C 2.953125 -5.769531 2.6875 -5.582031 2.46875 -5.34375 C 2.25 -5.101562 2.078125 -4.816406 1.953125 -4.484375 C 1.828125 -4.160156 1.765625 -3.820312 1.765625 -3.46875 L 1.765625 -3.4375 C 1.765625 -3.0625 1.828125 -2.710938 1.953125 -2.390625 C 2.085938 -2.066406 2.265625 -1.785156 2.484375 -1.546875 C 2.710938 -1.304688 2.984375 -1.113281 3.296875 -0.96875 C 3.609375 -0.832031 3.945312 -0.765625 4.3125 -0.765625 Z M 4.3125 -0.765625 "/></g></g></g><g fill="#ffffff" fill-opacity="1"><g transform="translate(119.873423, 260.376926)"><g><path d="M 3.671875 0.140625 C 3.253906 0.140625 2.882812 0.078125 2.5625 -0.046875 C 2.238281 -0.179688 1.960938 -0.367188 1.734375 -0.609375 C 1.503906 -0.859375 1.328125 -1.148438 1.203125 -1.484375 C 1.085938 -1.828125 1.03125 -2.203125 1.03125 -2.609375 L 1.03125 -6.875 L 2.0625 -6.875 L 2.0625 -2.859375 C 2.0625 -2.222656 2.222656 -1.71875 2.546875 -1.34375 C 2.878906 -0.96875 3.351562 -0.78125 3.96875 -0.78125 C 4.257812 -0.78125 4.53125 -0.832031 4.78125 -0.9375 C 5.039062 -1.039062 5.257812 -1.1875 5.4375 -1.375 C 5.625 -1.570312 5.769531 -1.800781 5.875 -2.0625 C 5.976562 -2.332031 6.03125 -2.625 6.03125 -2.9375 L 6.03125 -6.875 L 7.046875 -6.875 L 7.046875 0 L 6.03125 0 L 6.03125 -1.203125 C 5.800781 -0.828125 5.5 -0.507812 5.125 -0.25 C 4.75 0.0078125 4.265625 0.140625 3.671875 0.140625 Z M 3.671875 0.140625 "/></g></g></g><g fill="#ffffff" fill-opacity="1"><g transform="translate(128.80628, 260.376926)"><g><path d="M 1.140625 -6.875 L 2.171875 -6.875 L 2.171875 -5.6875 C 2.398438 -6.0625 2.703125 -6.378906 3.078125 -6.640625 C 3.453125 -6.898438 3.9375 -7.03125 4.53125 -7.03125 C 4.945312 -7.03125 5.316406 -6.960938 5.640625 -6.828125 C 5.960938 -6.691406 6.234375 -6.5 6.453125 -6.25 C 6.679688 -6.007812 6.851562 -5.722656 6.96875 -5.390625 C 7.09375 -5.054688 7.15625 -4.679688 7.15625 -4.265625 L 7.15625 0 L 6.140625 0 L 6.140625 -4.015625 C 6.140625 -4.660156 5.972656 -5.164062 5.640625 -5.53125 C 5.316406 -5.90625 4.847656 -6.09375 4.234375 -6.09375 C 3.941406 -6.09375 3.664062 -6.039062 3.40625 -5.9375 C 3.15625 -5.84375 2.9375 -5.695312 2.75 -5.5 C 2.5625 -5.3125 2.414062 -5.082031 2.3125 -4.8125 C 2.21875 -4.550781 2.171875 -4.257812 2.171875 -3.9375 L 2.171875 0 L 1.140625 0 Z M 1.140625 -6.875 "/></g></g></g><g fill="#ffffff" fill-opacity="1"><g transform="translate(137.739137, 260.376926)"><g><path d="M 3.453125 0.125 C 3.171875 0.125 2.910156 0.0859375 2.671875 0.015625 C 2.429688 -0.0546875 2.222656 -0.171875 2.046875 -0.328125 C 1.878906 -0.484375 1.742188 -0.679688 1.640625 -0.921875 C 1.546875 -1.171875 1.5 -1.472656 1.5 -1.828125 L 1.5 -5.984375 L 0.546875 -5.984375 L 0.546875 -6.875 L 1.5 -6.875 L 1.5 -8.953125 L 2.53125 -8.953125 L 2.53125 -6.875 L 4.71875 -6.875 L 4.71875 -5.984375 L 2.53125 -5.984375 L 2.53125 -1.953125 C 2.53125 -1.523438 2.632812 -1.226562 2.84375 -1.0625 C 3.0625 -0.894531 3.34375 -0.8125 3.6875 -0.8125 C 3.863281 -0.8125 4.03125 -0.828125 4.1875 -0.859375 C 4.34375 -0.898438 4.507812 -0.960938 4.6875 -1.046875 L 4.6875 -0.171875 C 4.507812 -0.078125 4.320312 -0.00390625 4.125 0.046875 C 3.925781 0.0976562 3.703125 0.125 3.453125 0.125 Z M 3.453125 0.125 "/></g></g></g><g fill="#ffffff" fill-opacity="1"><g transform="translate(143.849733, 260.376926)"><g><path d="M 1.171875 -9.515625 L 2.34375 -9.515625 L 2.34375 -8.390625 L 1.171875 -8.390625 Z M 1.234375 -6.875 L 2.265625 -6.875 L 2.265625 0 L 1.234375 0 Z M 1.234375 -6.875 "/></g></g></g><g fill="#ffffff" fill-opacity="1"><g transform="translate(148.083268, 260.376926)"><g><path d="M 1.140625 -6.875 L 2.171875 -6.875 L 2.171875 -5.6875 C 2.398438 -6.0625 2.703125 -6.378906 3.078125 -6.640625 C 3.453125 -6.898438 3.9375 -7.03125 4.53125 -7.03125 C 4.945312 -7.03125 5.316406 -6.960938 5.640625 -6.828125 C 5.960938 -6.691406 6.234375 -6.5 6.453125 -6.25 C 6.679688 -6.007812 6.851562 -5.722656 6.96875 -5.390625 C 7.09375 -5.054688 7.15625 -4.679688 7.15625 -4.265625 L 7.15625 0 L 6.140625 0 L 6.140625 -4.015625 C 6.140625 -4.660156 5.972656 -5.164062 5.640625 -5.53125 C 5.316406 -5.90625 4.847656 -6.09375 4.234375 -6.09375 C 3.941406 -6.09375 3.664062 -6.039062 3.40625 -5.9375 C 3.15625 -5.84375 2.9375 -5.695312 2.75 -5.5 C 2.5625 -5.3125 2.414062 -5.082031 2.3125 -4.8125 C 2.21875 -4.550781 2.171875 -4.257812 2.171875 -3.9375 L 2.171875 0 L 1.140625 0 Z M 1.140625 -6.875 "/></g></g></g><g fill="#ffffff" fill-opacity="1"><g transform="translate(157.016125, 260.376926)"><g><path d="M 4.1875 2.15625 C 3.613281 2.15625 3.0625 2.070312 2.53125 1.90625 C 2.007812 1.75 1.519531 1.515625 1.0625 1.203125 L 1.53125 0.40625 C 1.925781 0.6875 2.34375 0.898438 2.78125 1.046875 C 3.21875 1.203125 3.6875 1.28125 4.1875 1.28125 C 4.945312 1.28125 5.550781 1.070312 6 0.65625 C 6.457031 0.25 6.6875 -0.359375 6.6875 -1.171875 L 6.6875 -1.984375 C 6.382812 -1.585938 6.015625 -1.242188 5.578125 -0.953125 C 5.140625 -0.671875 4.609375 -0.53125 3.984375 -0.53125 C 3.566406 -0.53125 3.164062 -0.601562 2.78125 -0.75 C 2.394531 -0.90625 2.050781 -1.125 1.75 -1.40625 C 1.445312 -1.6875 1.203125 -2.023438 1.015625 -2.421875 C 0.835938 -2.816406 0.75 -3.257812 0.75 -3.75 L 0.75 -3.78125 C 0.75 -4.289062 0.835938 -4.742188 1.015625 -5.140625 C 1.203125 -5.535156 1.445312 -5.875 1.75 -6.15625 C 2.050781 -6.4375 2.394531 -6.648438 2.78125 -6.796875 C 3.175781 -6.953125 3.578125 -7.03125 3.984375 -7.03125 C 4.296875 -7.03125 4.585938 -6.988281 4.859375 -6.90625 C 5.128906 -6.832031 5.375 -6.734375 5.59375 -6.609375 C 5.8125 -6.492188 6.007812 -6.347656 6.1875 -6.171875 C 6.363281 -6.003906 6.523438 -5.828125 6.671875 -5.640625 L 6.671875 -6.875 L 7.6875 -6.875 L 7.6875 -1.203125 C 7.6875 -0.671875 7.609375 -0.203125 7.453125 0.203125 C 7.304688 0.609375 7.09375 0.953125 6.8125 1.234375 C 6.5 1.546875 6.117188 1.773438 5.671875 1.921875 C 5.234375 2.078125 4.738281 2.15625 4.1875 2.15625 Z M 4.1875 -1.4375 C 4.507812 -1.4375 4.820312 -1.488281 5.125 -1.59375 C 5.425781 -1.707031 5.691406 -1.867188 5.921875 -2.078125 C 6.160156 -2.285156 6.347656 -2.53125 6.484375 -2.8125 C 6.628906 -3.101562 6.703125 -3.421875 6.703125 -3.765625 L 6.703125 -3.796875 C 6.703125 -4.148438 6.628906 -4.46875 6.484375 -4.75 C 6.347656 -5.03125 6.160156 -5.273438 5.921875 -5.484375 C 5.691406 -5.691406 5.425781 -5.847656 5.125 -5.953125 C 4.820312 -6.066406 4.507812 -6.125 4.1875 -6.125 C 3.851562 -6.125 3.539062 -6.066406 3.25 -5.953125 C 2.96875 -5.847656 2.71875 -5.691406 2.5 -5.484375 C 2.28125 -5.285156 2.109375 -5.046875 1.984375 -4.765625 C 1.859375 -4.484375 1.796875 -4.164062 1.796875 -3.8125 L 1.796875 -3.78125 C 1.796875 -3.4375 1.859375 -3.117188 1.984375 -2.828125 C 2.117188 -2.535156 2.289062 -2.285156 2.5 -2.078125 C 2.71875 -1.878906 2.972656 -1.722656 3.265625 -1.609375 C 3.554688 -1.492188 3.863281 -1.4375 4.1875 -1.4375 Z M 4.1875 -1.4375 "/></g></g></g><g fill="#ffffff" fill-opacity="1"><g transform="translate(166.587974, 260.376926)"><g/></g></g><g fill="#ffffff" fill-opacity="1"><g transform="translate(171.314075, 260.376926)"><g><path d="M 1.578125 -10.625 L 2.453125 -10.625 L 2.453125 1.703125 L 1.578125 1.703125 Z M 1.578125 -10.625 "/></g></g></g><g fill="#ffffff" fill-opacity="1"><g transform="translate(176.080104, 260.376926)"><g/></g></g><g fill="#ffffff" fill-opacity="1"><g transform="translate(180.806205, 260.376926)"><g><path d="M 1.40625 -9.3125 L 2.46875 -9.3125 L 2.46875 0 L 1.40625 0 Z M 1.40625 -9.3125 "/></g></g></g><g fill="#ffffff" fill-opacity="1"><g transform="translate(185.412486, 260.376926)"><g><path d="M 1.140625 -6.875 L 2.171875 -6.875 L 2.171875 -5.6875 C 2.398438 -6.0625 2.703125 -6.378906 3.078125 -6.640625 C 3.453125 -6.898438 3.9375 -7.03125 4.53125 -7.03125 C 4.945312 -7.03125 5.316406 -6.960938 5.640625 -6.828125 C 5.960938 -6.691406 6.234375 -6.5 6.453125 -6.25 C 6.679688 -6.007812 6.851562 -5.722656 6.96875 -5.390625 C 7.09375 -5.054688 7.15625 -4.679688 7.15625 -4.265625 L 7.15625 0 L 6.140625 0 L 6.140625 -4.015625 C 6.140625 -4.660156 5.972656 -5.164062 5.640625 -5.53125 C 5.316406 -5.90625 4.847656 -6.09375 4.234375 -6.09375 C 3.941406 -6.09375 3.664062 -6.039062 3.40625 -5.9375 C 3.15625 -5.84375 2.9375 -5.695312 2.75 -5.5 C 2.5625 -5.3125 2.414062 -5.082031 2.3125 -4.8125 C 2.21875 -4.550781 2.171875 -4.257812 2.171875 -3.9375 L 2.171875 0 L 1.140625 0 Z M 1.140625 -6.875 "/></g></g></g><g fill="#ffffff" fill-opacity="1"><g transform="translate(194.345342, 260.376926)"><g><path d="M 3.421875 0.140625 C 2.921875 0.140625 2.414062 0.0507812 1.90625 -0.125 C 1.40625 -0.3125 0.960938 -0.5625 0.578125 -0.875 L 1.09375 -1.609375 C 1.46875 -1.328125 1.851562 -1.109375 2.25 -0.953125 C 2.65625 -0.804688 3.0625 -0.734375 3.46875 -0.734375 C 3.882812 -0.734375 4.226562 -0.828125 4.5 -1.015625 C 4.769531 -1.210938 4.90625 -1.484375 4.90625 -1.828125 L 4.90625 -1.84375 C 4.90625 -2.019531 4.859375 -2.164062 4.765625 -2.28125 C 4.671875 -2.40625 4.539062 -2.515625 4.375 -2.609375 C 4.21875 -2.703125 4.035156 -2.785156 3.828125 -2.859375 C 3.617188 -2.929688 3.40625 -3 3.1875 -3.0625 C 2.914062 -3.144531 2.644531 -3.234375 2.375 -3.328125 C 2.101562 -3.421875 1.859375 -3.535156 1.640625 -3.671875 C 1.421875 -3.816406 1.242188 -3.992188 1.109375 -4.203125 C 0.972656 -4.421875 0.90625 -4.6875 0.90625 -5 L 0.90625 -5.03125 C 0.90625 -5.320312 0.960938 -5.585938 1.078125 -5.828125 C 1.191406 -6.078125 1.351562 -6.285156 1.5625 -6.453125 C 1.769531 -6.628906 2.019531 -6.765625 2.3125 -6.859375 C 2.601562 -6.953125 2.914062 -7 3.25 -7 C 3.675781 -7 4.101562 -6.929688 4.53125 -6.796875 C 4.96875 -6.660156 5.363281 -6.476562 5.71875 -6.25 L 5.265625 -5.46875 C 4.941406 -5.675781 4.601562 -5.835938 4.25 -5.953125 C 3.90625 -6.078125 3.5625 -6.140625 3.21875 -6.140625 C 2.8125 -6.140625 2.488281 -6.039062 2.25 -5.84375 C 2.007812 -5.65625 1.890625 -5.421875 1.890625 -5.140625 L 1.890625 -5.109375 C 1.890625 -4.953125 1.9375 -4.8125 2.03125 -4.6875 C 2.132812 -4.570312 2.265625 -4.46875 2.421875 -4.375 C 2.585938 -4.289062 2.773438 -4.210938 2.984375 -4.140625 C 3.203125 -4.066406 3.425781 -3.992188 3.65625 -3.921875 C 3.925781 -3.847656 4.191406 -3.757812 4.453125 -3.65625 C 4.710938 -3.5625 4.945312 -3.4375 5.15625 -3.28125 C 5.375 -3.132812 5.546875 -2.953125 5.671875 -2.734375 C 5.804688 -2.523438 5.875 -2.265625 5.875 -1.953125 L 5.875 -1.9375 C 5.875 -1.601562 5.804688 -1.304688 5.671875 -1.046875 C 5.546875 -0.796875 5.375 -0.582031 5.15625 -0.40625 C 4.9375 -0.226562 4.675781 -0.09375 4.375 0 C 4.082031 0.09375 3.765625 0.140625 3.421875 0.140625 Z M 3.421875 0.140625 "/></g></g></g><g fill="#ffffff" fill-opacity="1"><g transform="translate(201.707315, 260.376926)"><g><path d="M 1.171875 -9.515625 L 2.34375 -9.515625 L 2.34375 -8.390625 L 1.171875 -8.390625 Z M 1.234375 -6.875 L 2.265625 -6.875 L 2.265625 0 L 1.234375 0 Z M 1.234375 -6.875 "/></g></g></g><g fill="#ffffff" fill-opacity="1"><g transform="translate(205.94085, 260.376926)"><g><path d="M 4.1875 2.15625 C 3.613281 2.15625 3.0625 2.070312 2.53125 1.90625 C 2.007812 1.75 1.519531 1.515625 1.0625 1.203125 L 1.53125 0.40625 C 1.925781 0.6875 2.34375 0.898438 2.78125 1.046875 C 3.21875 1.203125 3.6875 1.28125 4.1875 1.28125 C 4.945312 1.28125 5.550781 1.070312 6 0.65625 C 6.457031 0.25 6.6875 -0.359375 6.6875 -1.171875 L 6.6875 -1.984375 C 6.382812 -1.585938 6.015625 -1.242188 5.578125 -0.953125 C 5.140625 -0.671875 4.609375 -0.53125 3.984375 -0.53125 C 3.566406 -0.53125 3.164062 -0.601562 2.78125 -0.75 C 2.394531 -0.90625 2.050781 -1.125 1.75 -1.40625 C 1.445312 -1.6875 1.203125 -2.023438 1.015625 -2.421875 C 0.835938 -2.816406 0.75 -3.257812 0.75 -3.75 L 0.75 -3.78125 C 0.75 -4.289062 0.835938 -4.742188 1.015625 -5.140625 C 1.203125 -5.535156 1.445312 -5.875 1.75 -6.15625 C 2.050781 -6.4375 2.394531 -6.648438 2.78125 -6.796875 C 3.175781 -6.953125 3.578125 -7.03125 3.984375 -7.03125 C 4.296875 -7.03125 4.585938 -6.988281 4.859375 -6.90625 C 5.128906 -6.832031 5.375 -6.734375 5.59375 -6.609375 C 5.8125 -6.492188 6.007812 -6.347656 6.1875 -6.171875 C 6.363281 -6.003906 6.523438 -5.828125 6.671875 -5.640625 L 6.671875 -6.875 L 7.6875 -6.875 L 7.6875 -1.203125 C 7.6875 -0.671875 7.609375 -0.203125 7.453125 0.203125 C 7.304688 0.609375 7.09375 0.953125 6.8125 1.234375 C 6.5 1.546875 6.117188 1.773438 5.671875 1.921875 C 5.234375 2.078125 4.738281 2.15625 4.1875 2.15625 Z M 4.1875 -1.4375 C 4.507812 -1.4375 4.820312 -1.488281 5.125 -1.59375 C 5.425781 -1.707031 5.691406 -1.867188 5.921875 -2.078125 C 6.160156 -2.285156 6.347656 -2.53125 6.484375 -2.8125 C 6.628906 -3.101562 6.703125 -3.421875 6.703125 -3.765625 L 6.703125 -3.796875 C 6.703125 -4.148438 6.628906 -4.46875 6.484375 -4.75 C 6.347656 -5.03125 6.160156 -5.273438 5.921875 -5.484375 C 5.691406 -5.691406 5.425781 -5.847656 5.125 -5.953125 C 4.820312 -6.066406 4.507812 -6.125 4.1875 -6.125 C 3.851562 -6.125 3.539062 -6.066406 3.25 -5.953125 C 2.96875 -5.847656 2.71875 -5.691406 2.5 -5.484375 C 2.28125 -5.285156 2.109375 -5.046875 1.984375 -4.765625 C 1.859375 -4.484375 1.796875 -4.164062 1.796875 -3.8125 L 1.796875 -3.78125 C 1.796875 -3.4375 1.859375 -3.117188 1.984375 -2.828125 C 2.117188 -2.535156 2.289062 -2.285156 2.5 -2.078125 C 2.71875 -1.878906 2.972656 -1.722656 3.265625 -1.609375 C 3.554688 -1.492188 3.863281 -1.4375 4.1875 -1.4375 Z M 4.1875 -1.4375 "/></g></g></g><g fill="#ffffff" fill-opacity="1"><g transform="translate(215.512699, 260.376926)"><g><path d="M 1.140625 -9.71875 L 2.171875 -9.71875 L 2.171875 -5.6875 C 2.398438 -6.0625 2.703125 -6.378906 3.078125 -6.640625 C 3.453125 -6.898438 3.9375 -7.03125 4.53125 -7.03125 C 4.945312 -7.03125 5.316406 -6.960938 5.640625 -6.828125 C 5.960938 -6.691406 6.234375 -6.5 6.453125 -6.25 C 6.679688 -6.007812 6.851562 -5.722656 6.96875 -5.390625 C 7.09375 -5.054688 7.15625 -4.679688 7.15625 -4.265625 L 7.15625 0 L 6.140625 0 L 6.140625 -4.015625 C 6.140625 -4.660156 5.972656 -5.164062 5.640625 -5.53125 C 5.316406 -5.90625 4.847656 -6.09375 4.234375 -6.09375 C 3.941406 -6.09375 3.664062 -6.039062 3.40625 -5.9375 C 3.15625 -5.84375 2.9375 -5.695312 2.75 -5.5 C 2.5625 -5.3125 2.414062 -5.082031 2.3125 -4.8125 C 2.21875 -4.550781 2.171875 -4.257812 2.171875 -3.9375 L 2.171875 0 L 1.140625 0 Z M 1.140625 -9.71875 "/></g></g></g><g fill="#ffffff" fill-opacity="1"><g transform="translate(224.445556, 260.376926)"><g><path d="M 3.453125 0.125 C 3.171875 0.125 2.910156 0.0859375 2.671875 0.015625 C 2.429688 -0.0546875 2.222656 -0.171875 2.046875 -0.328125 C 1.878906 -0.484375 1.742188 -0.679688 1.640625 -0.921875 C 1.546875 -1.171875 1.5 -1.472656 1.5 -1.828125 L 1.5 -5.984375 L 0.546875 -5.984375 L 0.546875 -6.875 L 1.5 -6.875 L 1.5 -8.953125 L 2.53125 -8.953125 L 2.53125 -6.875 L 4.71875 -6.875 L 4.71875 -5.984375 L 2.53125 -5.984375 L 2.53125 -1.953125 C 2.53125 -1.523438 2.632812 -1.226562 2.84375 -1.0625 C 3.0625 -0.894531 3.34375 -0.8125 3.6875 -0.8125 C 3.863281 -0.8125 4.03125 -0.828125 4.1875 -0.859375 C 4.34375 -0.898438 4.507812 -0.960938 4.6875 -1.046875 L 4.6875 -0.171875 C 4.507812 -0.078125 4.320312 -0.00390625 4.125 0.046875 C 3.925781 0.0976562 3.703125 0.125 3.453125 0.125 Z M 3.453125 0.125 "/></g></g></g><g fill="#ffffff" fill-opacity="1"><g transform="translate(230.556152, 260.376926)"><g/></g></g><g fill="#ffffff" fill-opacity="1"><g transform="translate(235.282252, 260.376926)"><g><path d="M 1.578125 -10.625 L 2.453125 -10.625 L 2.453125 1.703125 L 1.578125 1.703125 Z M 1.578125 -10.625 "/></g></g></g><g fill="#ffffff" fill-opacity="1"><g transform="translate(240.048281, 260.376926)"><g/></g></g><g fill="#ffffff" fill-opacity="1"><g transform="translate(244.774382, 260.376926)"><g><path d="M 1.3125 -9.3125 L 8.015625 -9.3125 L 8.015625 -8.34375 L 2.375 -8.34375 L 2.375 -5.015625 L 7.421875 -5.015625 L 7.421875 -4.0625 L 2.375 -4.0625 L 2.375 0 L 1.3125 0 Z M 1.3125 -9.3125 "/></g></g></g><g fill="#ffffff" fill-opacity="1"><g transform="translate(254.239732, 260.376926)"><g><path d="M 1.171875 -9.515625 L 2.34375 -9.515625 L 2.34375 -8.390625 L 1.171875 -8.390625 Z M 1.234375 -6.875 L 2.265625 -6.875 L 2.265625 0 L 1.234375 0 Z M 1.234375 -6.875 "/></g></g></g><g fill="#ffffff" fill-opacity="1"><g transform="translate(258.473268, 260.376926)"><g><path d="M 1.140625 -6.875 L 2.171875 -6.875 L 2.171875 -5.6875 C 2.398438 -6.0625 2.703125 -6.378906 3.078125 -6.640625 C 3.453125 -6.898438 3.9375 -7.03125 4.53125 -7.03125 C 4.945312 -7.03125 5.316406 -6.960938 5.640625 -6.828125 C 5.960938 -6.691406 6.234375 -6.5 6.453125 -6.25 C 6.679688 -6.007812 6.851562 -5.722656 6.96875 -5.390625 C 7.09375 -5.054688 7.15625 -4.679688 7.15625 -4.265625 L 7.15625 0 L 6.140625 0 L 6.140625 -4.015625 C 6.140625 -4.660156 5.972656 -5.164062 5.640625 -5.53125 C 5.316406 -5.90625 4.847656 -6.09375 4.234375 -6.09375 C 3.941406 -6.09375 3.664062 -6.039062 3.40625 -5.9375 C 3.15625 -5.84375 2.9375 -5.695312 2.75 -5.5 C 2.5625 -5.3125 2.414062 -5.082031 2.3125 -4.8125 C 2.21875 -4.550781 2.171875 -4.257812 2.171875 -3.9375 L 2.171875 0 L 1.140625 0 Z M 1.140625 -6.875 "/></g></g></g><g fill="#ffffff" fill-opacity="1"><g transform="translate(267.406125, 260.376926)"><g><path d="M 3.453125 0.125 C 3.171875 0.125 2.910156 0.0859375 2.671875 0.015625 C 2.429688 -0.0546875 2.222656 -0.171875 2.046875 -0.328125 C 1.878906 -0.484375 1.742188 -0.679688 1.640625 -0.921875 C 1.546875 -1.171875 1.5 -1.472656 1.5 -1.828125 L 1.5 -5.984375 L 0.546875 -5.984375 L 0.546875 -6.875 L 1.5 -6.875 L 1.5 -8.953125 L 2.53125 -8.953125 L 2.53125 -6.875 L 4.71875 -6.875 L 4.71875 -5.984375 L 2.53125 -5.984375 L 2.53125 -1.953125 C 2.53125 -1.523438 2.632812 -1.226562 2.84375 -1.0625 C 3.0625 -0.894531 3.34375 -0.8125 3.6875 -0.8125 C 3.863281 -0.8125 4.03125 -0.828125 4.1875 -0.859375 C 4.34375 -0.898438 4.507812 -0.960938 4.6875 -1.046875 L 4.6875 -0.171875 C 4.507812 -0.078125 4.320312 -0.00390625 4.125 0.046875 C 3.925781 0.0976562 3.703125 0.125 3.453125 0.125 Z M 3.453125 0.125 "/></g></g></g><g fill="#ffffff" fill-opacity="1"><g transform="translate(273.51672, 260.376926)"><g><path d="M 4.15625 0.15625 C 3.6875 0.15625 3.242188 0.0703125 2.828125 -0.09375 C 2.410156 -0.269531 2.046875 -0.515625 1.734375 -0.828125 C 1.421875 -1.140625 1.171875 -1.515625 0.984375 -1.953125 C 0.804688 -2.398438 0.71875 -2.890625 0.71875 -3.421875 L 0.71875 -3.453125 C 0.71875 -3.941406 0.800781 -4.40625 0.96875 -4.84375 C 1.132812 -5.28125 1.363281 -5.660156 1.65625 -5.984375 C 1.945312 -6.304688 2.289062 -6.5625 2.6875 -6.75 C 3.09375 -6.9375 3.535156 -7.03125 4.015625 -7.03125 C 4.523438 -7.03125 4.976562 -6.929688 5.375 -6.734375 C 5.78125 -6.546875 6.117188 -6.285156 6.390625 -5.953125 C 6.660156 -5.628906 6.867188 -5.25 7.015625 -4.8125 C 7.160156 -4.375 7.234375 -3.898438 7.234375 -3.390625 C 7.234375 -3.316406 7.234375 -3.257812 7.234375 -3.21875 C 7.234375 -3.175781 7.226562 -3.125 7.21875 -3.0625 L 1.75 -3.0625 C 1.789062 -2.6875 1.878906 -2.351562 2.015625 -2.0625 C 2.160156 -1.78125 2.34375 -1.535156 2.5625 -1.328125 C 2.78125 -1.128906 3.023438 -0.976562 3.296875 -0.875 C 3.578125 -0.78125 3.875 -0.734375 4.1875 -0.734375 C 4.664062 -0.734375 5.070312 -0.820312 5.40625 -1 C 5.75 -1.175781 6.0625 -1.410156 6.34375 -1.703125 L 6.984375 -1.125 C 6.640625 -0.738281 6.242188 -0.425781 5.796875 -0.1875 C 5.359375 0.0390625 4.8125 0.15625 4.15625 0.15625 Z M 6.1875 -3.828125 C 6.164062 -4.128906 6.101562 -4.421875 6 -4.703125 C 5.894531 -4.992188 5.75 -5.242188 5.5625 -5.453125 C 5.382812 -5.671875 5.164062 -5.84375 4.90625 -5.96875 C 4.644531 -6.09375 4.34375 -6.15625 4 -6.15625 C 3.695312 -6.15625 3.414062 -6.09375 3.15625 -5.96875 C 2.894531 -5.851562 2.664062 -5.691406 2.46875 -5.484375 C 2.28125 -5.273438 2.125 -5.03125 2 -4.75 C 1.875 -4.46875 1.789062 -4.160156 1.75 -3.828125 Z M 6.1875 -3.828125 "/></g></g></g><g fill="#ffffff" fill-opacity="1"><g transform="translate(282.130081, 260.376926)"><g><path d="M 4.25 0.15625 C 3.738281 0.15625 3.269531 0.0625 2.84375 -0.125 C 2.414062 -0.3125 2.039062 -0.566406 1.71875 -0.890625 C 1.40625 -1.222656 1.160156 -1.601562 0.984375 -2.03125 C 0.804688 -2.46875 0.71875 -2.925781 0.71875 -3.40625 L 0.71875 -3.4375 C 0.71875 -3.925781 0.804688 -4.382812 0.984375 -4.8125 C 1.160156 -5.25 1.40625 -5.628906 1.71875 -5.953125 C 2.039062 -6.285156 2.414062 -6.546875 2.84375 -6.734375 C 3.269531 -6.929688 3.738281 -7.03125 4.25 -7.03125 C 4.570312 -7.03125 4.863281 -7 5.125 -6.9375 C 5.394531 -6.875 5.640625 -6.785156 5.859375 -6.671875 C 6.085938 -6.566406 6.296875 -6.4375 6.484375 -6.28125 C 6.671875 -6.132812 6.84375 -5.972656 7 -5.796875 L 6.328125 -5.078125 C 6.046875 -5.367188 5.742188 -5.613281 5.421875 -5.8125 C 5.097656 -6.019531 4.703125 -6.125 4.234375 -6.125 C 3.890625 -6.125 3.566406 -6.054688 3.265625 -5.921875 C 2.960938 -5.785156 2.695312 -5.597656 2.46875 -5.359375 C 2.25 -5.117188 2.078125 -4.832031 1.953125 -4.5 C 1.828125 -4.175781 1.765625 -3.832031 1.765625 -3.46875 L 1.765625 -3.4375 C 1.765625 -3.0625 1.828125 -2.710938 1.953125 -2.390625 C 2.085938 -2.066406 2.265625 -1.78125 2.484375 -1.53125 C 2.710938 -1.289062 2.976562 -1.101562 3.28125 -0.96875 C 3.59375 -0.832031 3.929688 -0.765625 4.296875 -0.765625 C 4.742188 -0.765625 5.132812 -0.859375 5.46875 -1.046875 C 5.8125 -1.242188 6.125 -1.488281 6.40625 -1.78125 L 7.0625 -1.171875 C 6.707031 -0.773438 6.3125 -0.453125 5.875 -0.203125 C 5.4375 0.0351562 4.894531 0.15625 4.25 0.15625 Z M 4.25 0.15625 "/></g></g></g><g fill="#ffffff" fill-opacity="1"><g transform="translate(290.463851, 260.376926)"><g><path d="M 1.140625 -9.71875 L 2.171875 -9.71875 L 2.171875 -5.6875 C 2.398438 -6.0625 2.703125 -6.378906 3.078125 -6.640625 C 3.453125 -6.898438 3.9375 -7.03125 4.53125 -7.03125 C 4.945312 -7.03125 5.316406 -6.960938 5.640625 -6.828125 C 5.960938 -6.691406 6.234375 -6.5 6.453125 -6.25 C 6.679688 -6.007812 6.851562 -5.722656 6.96875 -5.390625 C 7.09375 -5.054688 7.15625 -4.679688 7.15625 -4.265625 L 7.15625 0 L 6.140625 0 L 6.140625 -4.015625 C 6.140625 -4.660156 5.972656 -5.164062 5.640625 -5.53125 C 5.316406 -5.90625 4.847656 -6.09375 4.234375 -6.09375 C 3.941406 -6.09375 3.664062 -6.039062 3.40625 -5.9375 C 3.15625 -5.84375 2.9375 -5.695312 2.75 -5.5 C 2.5625 -5.3125 2.414062 -5.082031 2.3125 -4.8125 C 2.21875 -4.550781 2.171875 -4.257812 2.171875 -3.9375 L 2.171875 0 L 1.140625 0 Z M 1.140625 -9.71875 "/></g></g></g><g transform="matrix(1, 0, 0, 1, 81, 89)"><g clip-path="url(#66174c8bb7)"><g clip-path="url(#2c46291f23)"><path fill="#0097b2" d="M 36.234375 66.296875 C 39.914062 65.238281 43.65625 63.757812 47.429688 61.972656 C 47.429688 61.976562 47.433594 61.976562 47.433594 61.980469 C 47.59375 61.902344 47.757812 61.824219 47.917969 61.746094 C 47.921875 61.742188 47.925781 61.742188 47.925781 61.742188 C 48.488281 61.472656 49.050781 61.195312 49.613281 60.914062 C 79.53125 45.914062 109.160156 14.46875 135.726562 9.015625 C 149.371094 6.214844 161.988281 7.59375 173.703125 17.800781 C 164 1.640625 145.960938 -0.523438 132.539062 0.667969 C 99.023438 3.636719 63.332031 41.492188 41.804688 53.648438 C 40.480469 54.394531 39.210938 55.046875 38 55.585938 C 17.0625 64.898438 7.238281 50.933594 13.269531 44.59375 C 19.089844 38.46875 28.050781 38.863281 41.40625 47.128906 C 45.046875 44.855469 49.152344 41.878906 53.503906 38.585938 C 42.59375 32.28125 32.339844 28.417969 23.140625 28.660156 C -12.613281 29.617188 -4.597656 78.03125 36.234375 66.296875 " fill-opacity="1" fill-rule="nonzero"/></g><g clip-path="url(#074c7aaf3a)"><path fill="#ffffff" d="M 102.355469 75.082031 C 92.90625 67.277344 83.519531 59.535156 74.390625 52.675781 C 69.742188 55.835938 65.070312 58.871094 60.40625 61.613281 C 67.953125 68.207031 76.441406 76.429688 85.976562 86.386719 C 132.46875 134.933594 203.011719 112.335938 205.453125 58.488281 C 206.816406 28.492188 184.382812 13.394531 184.382812 13.394531 C 225.605469 63.320312 159.648438 122.414062 102.355469 75.082031 " fill-opacity="1" fill-rule="nonzero"/></g><path fill="#ffffff" d="M 11.699219 50.53125 C 11.207031 48.398438 11.703125 46.238281 13.269531 44.59375 C 19.089844 38.46875 28.050781 38.863281 41.40625 47.128906 C 45.046875 44.855469 49.152344 41.878906 53.503906 38.585938 C 49.761719 36.421875 46.089844 34.542969 42.519531 33.023438 C 26.980469 30.625 7.433594 36.015625 11.699219 50.53125 " fill-opacity="1" fill-rule="nonzero"/></g></g></svg>