<svg width="289" height="231" viewBox="0 0 289 231" fill="none" xmlns="http://www.w3.org/2000/svg">
<path d="M9.34831 129.158V153.492H3.80664V129.158H9.34831Z" fill="#444142"/>
<path d="M14.8652 153.492V129.158L30.0944 141.7L30.1569 129.158H35.6986V153.492L20.4069 140.992V153.492H14.8652Z" fill="#444142"/>
<path d="M55.0104 129.158V134.012H46.4479V138.867H54.3646V143.721H46.4479V153.492H40.9062V129.158H55.0104Z" fill="#444142"/>
<path d="M65.7585 129.158V153.492H60.2168V129.158H65.7585Z" fill="#444142"/>
<path d="M71.2754 153.492V129.158L86.5046 141.7L86.5671 129.158H92.1087V153.492L76.8171 140.992V153.492H71.2754Z" fill="#444142"/>
<path d="M23.4935 196.428C23.4935 196.428 23.2695 196.527 22.8268 196.72C22.3789 196.918 21.6445 197.111 20.6185 197.303C19.6029 197.496 18.2227 197.595 16.4727 197.595C14.7331 197.595 13.0768 197.272 11.4935 196.637C9.92057 195.986 8.51953 195.085 7.28516 193.928C6.04557 192.777 5.06641 191.444 4.34766 189.928C3.63932 188.402 3.28516 186.772 3.28516 185.033C3.28516 183.283 3.63932 181.652 4.34766 180.137C5.05599 178.611 6.02474 177.262 7.26432 176.095C8.4987 174.928 9.91016 174.022 11.4935 173.366C13.0768 172.715 14.7331 172.387 16.4727 172.387C18.2227 172.387 19.6029 172.486 20.6185 172.678C21.6445 172.876 22.3789 173.069 22.8268 173.262C23.2695 173.46 23.4935 173.553 23.4935 173.553L22.306 179.012C22.306 179.012 22.082 178.918 21.6393 178.72C21.1914 178.527 20.5977 178.335 19.8477 178.137C19.1081 177.944 18.2695 177.845 17.3268 177.845C15.9206 177.845 14.7122 178.064 13.7018 178.491C12.6862 178.923 11.8477 179.491 11.181 180.199C10.5247 180.908 10.0456 181.678 9.74349 182.512C9.45182 183.345 9.30599 184.168 9.30599 184.97C9.30599 185.803 9.45182 186.637 9.74349 187.47C10.0456 188.303 10.5247 189.074 11.181 189.783C11.8477 190.491 12.6862 191.064 13.7018 191.491C14.7122 191.923 15.9206 192.137 17.3268 192.137C18.2695 192.137 19.1081 192.043 19.8477 191.845C20.5977 191.652 21.1914 191.46 21.6393 191.262C22.082 191.069 22.306 190.97 22.306 190.97L23.4935 196.428Z" fill="#444142"/>
<path d="M33.5111 184.97C33.5111 186.236 33.8079 187.397 34.4069 188.449C35.0007 189.491 35.8079 190.335 36.8236 190.97C37.8496 191.611 38.9954 191.928 40.2611 191.928C41.5215 191.928 42.6569 191.611 43.6569 190.97C44.6673 190.335 45.4746 189.491 46.0736 188.449C46.6829 187.397 46.9902 186.236 46.9902 184.97C46.9902 183.72 46.6829 182.569 46.0736 181.512C45.4746 180.46 44.6673 179.616 43.6569 178.991C42.6569 178.355 41.5215 178.033 40.2611 178.033C38.9954 178.033 37.8496 178.355 36.8236 178.991C35.8079 179.616 35.0007 180.46 34.4069 181.512C33.8079 182.569 33.5111 183.72 33.5111 184.97ZM27.9902 184.97C27.9902 183.262 28.3027 181.652 28.9277 180.137C29.5632 178.626 30.4382 177.283 31.5527 176.116C32.6777 174.939 33.9798 174.022 35.4694 173.366C36.9538 172.715 38.5527 172.387 40.2611 172.387C41.9694 172.387 43.5632 172.715 45.0527 173.366C46.5371 174.022 47.834 174.939 48.9486 176.116C50.0579 177.283 50.9277 178.626 51.5527 180.137C52.1882 181.652 52.5111 183.262 52.5111 184.97C52.5111 186.678 52.1882 188.298 51.5527 189.824C50.9277 191.355 50.0579 192.699 48.9486 193.866C47.834 195.022 46.5371 195.928 45.0527 196.595C43.5632 197.262 41.9694 197.595 40.2611 197.595C38.5527 197.595 36.9538 197.262 35.4694 196.595C33.9798 195.928 32.6777 195.022 31.5527 193.866C30.4382 192.699 29.5632 191.355 28.9277 189.824C28.3027 188.298 27.9902 186.678 27.9902 184.97Z" fill="#444142"/>
<path d="M57.5625 197.158V172.824L72.7917 185.366L72.8542 172.824H78.3958V197.158L63.1042 184.658V197.158H57.5625Z" fill="#444142"/>
<path d="M86.0208 189.72C86.6458 190.178 87.375 190.605 88.2083 190.99C89.0521 191.365 89.901 191.667 90.75 191.886C91.5938 192.095 92.375 192.193 93.0833 192.178C93.8021 192.152 94.3854 191.98 94.8333 191.657C95.276 191.339 95.5 190.813 95.5 190.074C95.5 189.423 95.25 188.845 94.75 188.345C94.2604 187.845 93.6302 187.376 92.8542 186.928C92.0885 186.485 91.276 186.042 90.4167 185.595C89.5521 185.136 88.7344 184.636 87.9583 184.095C87.1927 183.553 86.5677 182.938 86.0833 182.24C85.6094 181.548 85.375 180.735 85.375 179.803C85.375 178.761 85.5938 177.751 86.0417 176.761C86.4844 175.761 87.1354 174.897 88 174.157C88.8594 173.423 89.9167 172.902 91.1667 172.595C92.4167 172.277 93.8542 172.272 95.4792 172.574C97.1042 172.881 98.8958 173.584 100.854 174.678L98.625 179.095C97.6927 178.318 96.7708 177.803 95.8542 177.553C94.9479 177.303 94.1094 177.256 93.3333 177.407C92.5677 177.563 91.9583 177.839 91.5 178.24C91.0417 178.647 90.8125 179.095 90.8125 179.595C90.8125 180.053 91.0625 180.464 91.5625 180.824C92.0729 181.188 92.7396 181.553 93.5625 181.928C94.3802 182.292 95.25 182.693 96.1667 183.136C97.0938 183.584 97.9635 184.105 98.7708 184.699C99.5885 185.298 100.255 186.006 100.771 186.824C101.297 187.631 101.562 188.61 101.562 189.761C101.562 190.917 101.25 192.032 100.625 193.115C100 194.199 99.125 195.136 98 195.928C96.875 196.709 95.5417 197.22 94 197.47C92.4688 197.73 90.7969 197.636 88.9792 197.178C87.1562 196.735 85.25 195.803 83.25 194.386L86.0208 189.72Z" fill="#444142"/>
<path d="M125.268 172.824V188.512C125.268 191.527 124.456 193.798 122.831 195.324C121.216 196.84 118.862 197.595 115.768 197.595C112.669 197.595 110.315 196.84 108.706 195.324C107.091 193.798 106.289 191.527 106.289 188.512V172.824H111.831V186.887C111.831 188.251 111.961 189.314 112.227 190.074C112.503 190.84 112.935 191.376 113.518 191.678C114.112 191.986 114.862 192.137 115.768 192.137C116.685 192.137 117.424 191.986 117.997 191.678C118.581 191.376 119.008 190.84 119.289 190.074C119.581 189.314 119.727 188.251 119.727 186.887V172.824H125.268Z" fill="#444142"/>
<path d="M135.926 172.824V192.283H144.301V197.158H130.363V172.824H135.926Z" fill="#444142"/>
<path d="M148.826 177.678V172.824H165.93V177.678H160.16V197.158H154.618V177.678H148.826Z" fill="#444142"/>
<path d="M184.82 172.824L194.674 197.158H188.716L186.883 192.283H177.612L175.841 197.158H169.883L179.674 172.824H184.82ZM184.987 187.428L182.216 180.345L179.508 187.428H184.987Z" fill="#444142"/>
<path d="M199.281 197.158V172.824L214.51 185.366L214.573 172.824H220.115V197.158L204.823 184.658V197.158H199.281Z" fill="#444142"/>
<path d="M224.904 177.678V172.824H242.008V177.678H236.238V197.158H230.696V177.678H224.904Z" fill="#444142"/>
<path d="M248.941 189.72C249.566 190.178 250.295 190.605 251.128 190.99C251.972 191.365 252.821 191.667 253.67 191.886C254.514 192.095 255.295 192.193 256.003 192.178C256.722 192.152 257.305 191.98 257.753 191.657C258.196 191.339 258.42 190.813 258.42 190.074C258.42 189.423 258.17 188.845 257.67 188.345C257.18 187.845 256.55 187.376 255.774 186.928C255.008 186.485 254.196 186.042 253.337 185.595C252.472 185.136 251.654 184.636 250.878 184.095C250.113 183.553 249.488 182.938 249.003 182.24C248.529 181.548 248.295 180.735 248.295 179.803C248.295 178.761 248.514 177.751 248.962 176.761C249.404 175.761 250.055 174.897 250.92 174.157C251.779 173.423 252.837 172.902 254.087 172.595C255.337 172.277 256.774 172.272 258.399 172.574C260.024 172.881 261.816 173.584 263.774 174.678L261.545 179.095C260.613 178.318 259.691 177.803 258.774 177.553C257.868 177.303 257.029 177.256 256.253 177.407C255.488 177.563 254.878 177.839 254.42 178.24C253.962 178.647 253.732 179.095 253.732 179.595C253.732 180.053 253.982 180.464 254.482 180.824C254.993 181.188 255.66 181.553 256.482 181.928C257.3 182.292 258.17 182.693 259.087 183.136C260.014 183.584 260.883 184.105 261.691 184.699C262.508 185.298 263.175 186.006 263.691 186.824C264.217 187.631 264.482 188.61 264.482 189.761C264.482 190.917 264.17 192.032 263.545 193.115C262.92 194.199 262.045 195.136 260.92 195.928C259.795 196.709 258.462 197.22 256.92 197.47C255.389 197.73 253.717 197.636 251.899 197.178C250.076 196.735 248.17 195.803 246.17 194.386L248.941 189.72Z" fill="#444142"/>
<path d="M7.95182 215.457H9.26432L14.931 227.978H13.4102L11.9727 224.686H5.20182L3.72266 227.978H2.28516L7.95182 215.457ZM11.4102 223.436L8.59766 217.103L5.74349 223.436H11.4102Z" fill="#444142"/>
<path d="M22.263 228.185C21.5807 228.185 20.9557 228.06 20.388 227.81C19.8151 227.56 19.3151 227.221 18.888 226.789C18.4714 226.346 18.1432 225.841 17.9089 225.268C17.6693 224.685 17.5547 224.076 17.5547 223.435V223.393C17.5547 222.742 17.6693 222.133 17.9089 221.56C18.1432 220.977 18.4714 220.471 18.888 220.039C19.3151 219.596 19.8151 219.247 20.388 218.997C20.9557 218.737 21.5807 218.602 22.263 218.602C22.6901 218.602 23.0807 218.643 23.4297 218.727C23.7891 218.81 24.1172 218.93 24.4089 219.081C24.7109 219.221 24.9922 219.393 25.2422 219.602C25.4922 219.799 25.7214 220.013 25.9297 220.247L25.0339 221.206C24.6589 220.82 24.2526 220.492 23.8255 220.227C23.3932 219.951 22.8672 219.81 22.2422 219.81C21.7839 219.81 21.3516 219.904 20.9505 220.081C20.5443 220.263 20.1901 220.513 19.888 220.831C19.5964 221.154 19.3672 221.534 19.2005 221.977C19.0339 222.409 18.9505 222.867 18.9505 223.352V223.393C18.9505 223.893 19.0339 224.362 19.2005 224.789C19.3776 225.221 19.6172 225.602 19.9089 225.935C20.2109 226.258 20.5651 226.508 20.9714 226.685C21.388 226.867 21.8359 226.956 22.3255 226.956C22.9193 226.956 23.4401 226.831 23.888 226.581C24.3464 226.32 24.763 225.992 25.138 225.602L26.013 226.414C25.5391 226.945 25.013 227.372 24.4297 227.706C23.8464 228.023 23.1224 228.185 22.263 228.185Z" fill="#444142"/>
<path d="M33.3763 228.185C32.694 228.185 32.069 228.06 31.5013 227.81C30.9284 227.56 30.4284 227.221 30.0013 226.789C29.5846 226.346 29.2565 225.841 29.0221 225.268C28.7826 224.685 28.668 224.076 28.668 223.435V223.393C28.668 222.742 28.7826 222.133 29.0221 221.56C29.2565 220.977 29.5846 220.471 30.0013 220.039C30.4284 219.596 30.9284 219.247 31.5013 218.997C32.069 218.737 32.694 218.602 33.3763 218.602C33.8034 218.602 34.194 218.643 34.543 218.727C34.9023 218.81 35.2305 218.93 35.5221 219.081C35.8242 219.221 36.1055 219.393 36.3555 219.602C36.6055 219.799 36.8346 220.013 37.043 220.247L36.1471 221.206C35.7721 220.82 35.3659 220.492 34.9388 220.227C34.5065 219.951 33.9805 219.81 33.3555 219.81C32.8971 219.81 32.4648 219.904 32.0638 220.081C31.6576 220.263 31.3034 220.513 31.0013 220.831C30.7096 221.154 30.4805 221.534 30.3138 221.977C30.1471 222.409 30.0638 222.867 30.0638 223.352V223.393C30.0638 223.893 30.1471 224.362 30.3138 224.789C30.4909 225.221 30.7305 225.602 31.0221 225.935C31.3242 226.258 31.6784 226.508 32.0846 226.685C32.5013 226.867 32.9492 226.956 33.4388 226.956C34.0326 226.956 34.5534 226.831 35.0013 226.581C35.4596 226.32 35.8763 225.992 36.2513 225.602L37.1263 226.414C36.6523 226.945 36.1263 227.372 35.543 227.706C34.9596 228.023 34.2357 228.185 33.3763 228.185Z" fill="#444142"/>
<path d="M44.5293 228.185C43.847 228.185 43.2168 228.06 42.6335 227.81C42.0501 227.56 41.5397 227.221 41.1126 226.789C40.696 226.346 40.3678 225.841 40.1335 225.268C39.8939 224.701 39.7793 224.091 39.7793 223.435V223.393C39.7793 222.742 39.8939 222.133 40.1335 221.56C40.3678 220.977 40.696 220.471 41.1126 220.039C41.5397 219.596 42.0501 219.247 42.6335 218.997C43.2272 218.737 43.873 218.602 44.571 218.602C45.248 218.602 45.8835 218.737 46.4668 218.997C47.0605 219.247 47.571 219.591 47.9876 220.018C48.4147 220.451 48.748 220.956 48.9876 221.539C49.222 222.112 49.3418 222.716 49.3418 223.352V223.393C49.3418 224.049 49.2168 224.664 48.9668 225.247C48.7272 225.831 48.3939 226.346 47.9668 226.789C47.5501 227.221 47.0397 227.56 46.446 227.81C45.8626 228.06 45.222 228.185 44.5293 228.185ZM44.571 226.956C45.071 226.956 45.5189 226.867 45.9251 226.685C46.3418 226.492 46.696 226.237 46.9876 225.914C47.2897 225.596 47.5293 225.227 47.696 224.81C47.8626 224.383 47.946 223.924 47.946 223.435V223.393C47.946 222.893 47.8522 222.43 47.6751 221.997C47.5085 221.57 47.2689 221.195 46.9668 220.872C46.6595 220.539 46.3001 220.284 45.8835 220.102C45.4668 219.909 45.0137 219.81 44.5293 219.81C44.0397 219.81 43.5918 219.909 43.1751 220.102C42.7585 220.284 42.4043 220.534 42.1126 220.852C41.821 221.174 41.5918 221.555 41.4251 221.997C41.2585 222.43 41.1751 222.883 41.1751 223.352V223.393C41.1751 223.893 41.2585 224.362 41.4251 224.789C41.6022 225.221 41.8418 225.596 42.1335 225.914C42.4355 226.237 42.8001 226.492 43.2168 226.685C43.6335 226.867 44.0814 226.956 44.571 226.956Z" fill="#444142"/>
<path d="M56.1595 228.165C55.6022 228.165 55.1074 228.081 54.6803 227.915C54.248 227.738 53.8783 227.488 53.5762 227.165C53.2689 226.831 53.0345 226.446 52.8678 225.998C52.7116 225.54 52.6387 225.04 52.6387 224.498V218.811H54.0137V224.165C54.0137 225.014 54.2272 225.686 54.6595 226.186C55.1022 226.686 55.7324 226.936 56.5553 226.936C56.9408 226.936 57.3053 226.868 57.6387 226.727C57.9824 226.592 58.2741 226.394 58.5137 226.144C58.7637 225.883 58.9564 225.576 59.097 225.227C59.2324 224.868 59.3053 224.477 59.3053 224.061V218.811H60.6595V227.977H59.3053V226.373C58.998 226.873 58.597 227.3 58.097 227.644C57.597 227.988 56.9512 228.165 56.1595 228.165Z" fill="#444142"/>
<path d="M64.6953 218.81H66.0703V220.393C66.3724 219.893 66.7786 219.471 67.2786 219.122C67.7786 218.779 68.4245 218.602 69.2161 218.602C69.7682 218.602 70.263 218.695 70.6953 218.872C71.1224 219.055 71.487 219.31 71.7786 219.643C72.0807 219.966 72.3099 220.346 72.4661 220.789C72.6328 221.237 72.7161 221.737 72.7161 222.289V227.977H71.362V222.622C71.362 221.763 71.138 221.091 70.6953 220.602C70.263 220.102 69.638 219.852 68.8203 219.852C68.4297 219.852 68.0599 219.924 67.7161 220.06C67.3828 220.185 67.0911 220.383 66.8411 220.643C66.5911 220.893 66.3932 221.201 66.2578 221.56C66.1328 221.909 66.0703 222.299 66.0703 222.727V227.977H64.6953V218.81Z" fill="#444142"/>
<path d="M79.6895 228.143C79.3145 228.143 78.9655 228.091 78.6478 227.997C78.3249 227.904 78.0488 227.747 77.8145 227.539C77.5905 227.331 77.4082 227.07 77.2728 226.747C77.1478 226.414 77.0853 226.013 77.0853 225.539V219.997H75.8145V218.81H77.0853V216.039H78.4603V218.81H81.377V219.997H78.4603V225.372C78.4603 225.945 78.5957 226.341 78.877 226.56C79.1686 226.784 79.5436 226.893 80.002 226.893C80.2363 226.893 80.4603 226.872 80.6686 226.831C80.877 226.779 81.0957 226.695 81.3353 226.581V227.747C81.0957 227.872 80.8457 227.971 80.5853 228.039C80.3197 228.107 80.0228 228.143 79.6895 228.143Z" fill="#444142"/>
<path d="M84.7949 215.289H86.3574V216.789H84.7949V215.289ZM84.8783 218.81H86.2533V227.977H84.8783V218.81Z" fill="#444142"/>
<path d="M90.3965 218.81H91.7715V220.393C92.0736 219.893 92.4798 219.471 92.9798 219.122C93.4798 218.779 94.1257 218.602 94.9173 218.602C95.4694 218.602 95.9642 218.695 96.3965 218.872C96.8236 219.055 97.1882 219.31 97.4798 219.643C97.7819 219.966 98.0111 220.346 98.1673 220.789C98.334 221.237 98.4173 221.737 98.4173 222.289V227.977H97.0632V222.622C97.0632 221.763 96.8392 221.091 96.3965 220.602C95.9642 220.102 95.3392 219.852 94.5215 219.852C94.1309 219.852 93.7611 219.924 93.4173 220.06C93.084 220.185 92.7923 220.383 92.5423 220.643C92.2923 220.893 92.0944 221.201 91.959 221.56C91.834 221.909 91.7715 222.299 91.7715 222.727V227.977H90.3965V218.81Z" fill="#444142"/>
<path d="M106.37 230.852C105.605 230.852 104.87 230.737 104.162 230.518C103.464 230.31 102.813 229.997 102.204 229.581L102.829 228.518C103.355 228.893 103.912 229.174 104.495 229.372C105.079 229.581 105.704 229.685 106.37 229.685C107.381 229.685 108.188 229.404 108.787 228.852C109.396 228.31 109.704 227.497 109.704 226.414V225.331C109.298 225.862 108.808 226.32 108.225 226.706C107.641 227.081 106.933 227.268 106.1 227.268C105.542 227.268 105.006 227.174 104.495 226.977C103.98 226.768 103.521 226.477 103.12 226.102C102.714 225.727 102.391 225.279 102.141 224.747C101.902 224.221 101.787 223.633 101.787 222.977V222.935C101.787 222.258 101.902 221.654 102.141 221.122C102.391 220.596 102.714 220.143 103.12 219.768C103.521 219.393 103.98 219.112 104.495 218.914C105.021 218.706 105.558 218.602 106.1 218.602C106.516 218.602 106.902 218.659 107.266 218.768C107.626 218.867 107.954 218.997 108.245 219.164C108.537 219.32 108.798 219.513 109.037 219.747C109.271 219.971 109.485 220.206 109.683 220.456V218.81H111.037V226.372C111.037 227.081 110.933 227.706 110.725 228.247C110.527 228.789 110.245 229.247 109.87 229.622C109.454 230.039 108.943 230.341 108.35 230.539C107.766 230.747 107.105 230.852 106.37 230.852ZM106.37 226.06C106.798 226.06 107.214 225.992 107.62 225.852C108.021 225.701 108.376 225.487 108.683 225.206C109.001 224.93 109.251 224.602 109.433 224.227C109.626 223.841 109.725 223.414 109.725 222.956V222.914C109.725 222.445 109.626 222.018 109.433 221.643C109.251 221.268 109.001 220.945 108.683 220.664C108.376 220.388 108.021 220.18 107.62 220.039C107.214 219.888 106.798 219.81 106.37 219.81C105.923 219.81 105.506 219.888 105.12 220.039C104.745 220.18 104.412 220.388 104.12 220.664C103.829 220.93 103.6 221.247 103.433 221.622C103.266 221.997 103.183 222.424 103.183 222.893V222.935C103.183 223.393 103.266 223.82 103.433 224.206C103.61 224.596 103.839 224.93 104.12 225.206C104.412 225.471 104.751 225.68 105.141 225.831C105.527 225.987 105.938 226.06 106.37 226.06Z" fill="#444142"/>
<path d="M121.955 213.811H123.122V230.248H121.955V213.811Z" fill="#444142"/>
<path d="M134.383 215.561H135.799V227.977H134.383V215.561Z" fill="#444142"/>
<path d="M140.17 218.81H141.545V220.393C141.847 219.893 142.253 219.471 142.753 219.122C143.253 218.779 143.899 218.602 144.691 218.602C145.243 218.602 145.738 218.695 146.17 218.872C146.597 219.055 146.962 219.31 147.253 219.643C147.555 219.966 147.785 220.346 147.941 220.789C148.107 221.237 148.191 221.737 148.191 222.289V227.977H146.837V222.622C146.837 221.763 146.613 221.091 146.17 220.602C145.738 220.102 145.113 219.852 144.295 219.852C143.904 219.852 143.535 219.924 143.191 220.06C142.857 220.185 142.566 220.383 142.316 220.643C142.066 220.893 141.868 221.201 141.732 221.56C141.607 221.909 141.545 222.299 141.545 222.727V227.977H140.17V218.81Z" fill="#444142"/>
<path d="M155.122 228.165C154.455 228.165 153.778 228.046 153.101 227.811C152.434 227.561 151.84 227.228 151.33 226.811L152.018 225.832C152.518 226.207 153.028 226.499 153.559 226.707C154.101 226.905 154.643 226.999 155.184 226.999C155.736 226.999 156.195 226.874 156.559 226.624C156.919 226.363 157.101 225.999 157.101 225.54V225.52C157.101 225.285 157.038 225.092 156.913 224.936C156.788 224.77 156.611 224.624 156.393 224.499C156.184 224.374 155.939 224.264 155.663 224.165C155.382 224.072 155.101 223.978 154.809 223.895C154.445 223.785 154.085 223.665 153.726 223.54C153.361 223.415 153.038 223.264 152.747 223.082C152.455 222.889 152.215 222.655 152.038 222.374C151.856 222.082 151.768 221.728 151.768 221.311V221.27C151.768 220.884 151.84 220.53 151.997 220.207C152.148 219.874 152.361 219.598 152.643 219.374C152.919 219.139 153.252 218.957 153.643 218.832C154.028 218.707 154.445 218.645 154.893 218.645C155.46 218.645 156.028 218.738 156.601 218.915C157.184 219.098 157.71 219.342 158.184 219.645L157.58 220.686C157.148 220.41 156.695 220.197 156.226 220.04C155.768 219.874 155.309 219.79 154.851 219.79C154.309 219.79 153.877 219.926 153.559 220.186C153.236 220.436 153.08 220.749 153.08 221.124V221.165C153.08 221.374 153.143 221.561 153.268 221.728C153.403 221.884 153.58 222.02 153.788 222.145C154.007 222.259 154.257 222.363 154.538 222.457C154.83 222.556 155.127 222.655 155.434 222.749C155.794 222.848 156.148 222.967 156.497 223.103C156.84 223.228 157.153 223.395 157.434 223.603C157.726 223.801 157.955 224.04 158.122 224.332C158.299 224.613 158.393 224.957 158.393 225.374V225.395C158.393 225.842 158.299 226.238 158.122 226.582C157.955 226.915 157.726 227.202 157.434 227.436C157.143 227.676 156.794 227.853 156.393 227.978C156.002 228.103 155.58 228.165 155.122 228.165Z" fill="#444142"/>
<path d="M161.938 215.289H163.5V216.789H161.938V215.289ZM162.021 218.81H163.396V227.977H162.021V218.81Z" fill="#444142"/>
<path d="M171.603 230.852C170.837 230.852 170.103 230.737 169.395 230.518C168.697 230.31 168.046 229.997 167.436 229.581L168.061 228.518C168.587 228.893 169.145 229.174 169.728 229.372C170.311 229.581 170.936 229.685 171.603 229.685C172.613 229.685 173.421 229.404 174.02 228.852C174.629 228.31 174.936 227.497 174.936 226.414V225.331C174.53 225.862 174.04 226.32 173.457 226.706C172.874 227.081 172.165 227.268 171.332 227.268C170.775 227.268 170.238 227.174 169.728 226.977C169.212 226.768 168.754 226.477 168.353 226.102C167.947 225.727 167.624 225.279 167.374 224.747C167.134 224.221 167.02 223.633 167.02 222.977V222.935C167.02 222.258 167.134 221.654 167.374 221.122C167.624 220.596 167.947 220.143 168.353 219.768C168.754 219.393 169.212 219.112 169.728 218.914C170.254 218.706 170.79 218.602 171.332 218.602C171.749 218.602 172.134 218.659 172.499 218.768C172.858 218.867 173.186 218.997 173.478 219.164C173.77 219.32 174.03 219.513 174.27 219.747C174.504 219.971 174.717 220.206 174.915 220.456V218.81H176.27V226.372C176.27 227.081 176.165 227.706 175.957 228.247C175.759 228.789 175.478 229.247 175.103 229.622C174.686 230.039 174.176 230.341 173.582 230.539C172.999 230.747 172.337 230.852 171.603 230.852ZM171.603 226.06C172.03 226.06 172.447 225.992 172.853 225.852C173.254 225.701 173.608 225.487 173.915 225.206C174.233 224.93 174.483 224.602 174.665 224.227C174.858 223.841 174.957 223.414 174.957 222.956V222.914C174.957 222.445 174.858 222.018 174.665 221.643C174.483 221.268 174.233 220.945 173.915 220.664C173.608 220.388 173.254 220.18 172.853 220.039C172.447 219.888 172.03 219.81 171.603 219.81C171.155 219.81 170.738 219.888 170.353 220.039C169.978 220.18 169.645 220.388 169.353 220.664C169.061 220.93 168.832 221.247 168.665 221.622C168.499 221.997 168.415 222.424 168.415 222.893V222.935C168.415 223.393 168.499 223.82 168.665 224.206C168.842 224.596 169.072 224.93 169.353 225.206C169.645 225.471 169.983 225.68 170.374 225.831C170.759 225.987 171.171 226.06 171.603 226.06Z" fill="#444142"/>
<path d="M180.303 215.02H181.678V220.395C181.98 219.895 182.386 219.473 182.886 219.124C183.386 218.78 184.032 218.603 184.824 218.603C185.376 218.603 185.87 218.697 186.303 218.874C186.73 219.056 187.094 219.311 187.386 219.645C187.688 219.967 187.917 220.348 188.074 220.79C188.24 221.238 188.324 221.738 188.324 222.29V227.978H186.969V222.624C186.969 221.764 186.745 221.092 186.303 220.603C185.87 220.103 185.245 219.853 184.428 219.853C184.037 219.853 183.667 219.926 183.324 220.061C182.99 220.186 182.699 220.384 182.449 220.645C182.199 220.895 182.001 221.202 181.865 221.561C181.74 221.91 181.678 222.301 181.678 222.728V227.978H180.303V215.02Z" fill="#444142"/>
<path d="M195.297 228.143C194.922 228.143 194.573 228.091 194.255 227.997C193.932 227.904 193.656 227.747 193.422 227.539C193.198 227.331 193.016 227.07 192.88 226.747C192.755 226.414 192.693 226.013 192.693 225.539V219.997H191.422V218.81H192.693V216.039H194.068V218.81H196.984V219.997H194.068V225.372C194.068 225.945 194.203 226.341 194.484 226.56C194.776 226.784 195.151 226.893 195.609 226.893C195.844 226.893 196.068 226.872 196.276 226.831C196.484 226.779 196.703 226.695 196.943 226.581V227.747C196.703 227.872 196.453 227.971 196.193 228.039C195.927 228.107 195.63 228.143 195.297 228.143Z" fill="#444142"/>
<path d="M207.246 213.811H208.413V230.248H207.246V213.811Z" fill="#444142"/>
<path d="M219.549 215.561H228.486V216.852H220.965V221.29H227.695V222.561H220.965V227.977H219.549V215.561Z" fill="#444142"/>
<path d="M231.98 215.289H233.543V216.789H231.98V215.289ZM232.064 218.81H233.439V227.977H232.064V218.81Z" fill="#444142"/>
<path d="M237.584 218.81H238.959V220.393C239.261 219.893 239.667 219.471 240.167 219.122C240.667 218.779 241.313 218.602 242.105 218.602C242.657 218.602 243.152 218.695 243.584 218.872C244.011 219.055 244.376 219.31 244.667 219.643C244.969 219.966 245.199 220.346 245.355 220.789C245.521 221.237 245.605 221.737 245.605 222.289V227.977H244.251V222.622C244.251 221.763 244.027 221.091 243.584 220.602C243.152 220.102 242.527 219.852 241.709 219.852C241.318 219.852 240.949 219.924 240.605 220.06C240.271 220.185 239.98 220.383 239.73 220.643C239.48 220.893 239.282 221.201 239.146 221.56C239.021 221.909 238.959 222.299 238.959 222.727V227.977H237.584V218.81Z" fill="#444142"/>
<path d="M252.578 228.143C252.203 228.143 251.854 228.091 251.536 227.997C251.214 227.904 250.937 227.747 250.703 227.539C250.479 227.331 250.297 227.07 250.161 226.747C250.036 226.414 249.974 226.013 249.974 225.539V219.997H248.703V218.81H249.974V216.039H251.349V218.81H254.266V219.997H251.349V225.372C251.349 225.945 251.484 226.341 251.766 226.56C252.057 226.784 252.432 226.893 252.891 226.893C253.125 226.893 253.349 226.872 253.557 226.831C253.766 226.779 253.984 226.695 254.224 226.581V227.747C253.984 227.872 253.734 227.971 253.474 228.039C253.208 228.107 252.911 228.143 252.578 228.143Z" fill="#444142"/>
<path d="M261.663 228.185C261.038 228.185 260.445 228.07 259.893 227.852C259.335 227.617 258.851 227.289 258.434 226.872C258.018 226.456 257.684 225.956 257.434 225.372C257.195 224.779 257.08 224.122 257.08 223.414V223.372C257.08 222.721 257.189 222.102 257.413 221.518C257.632 220.935 257.939 220.43 258.33 219.997C258.715 219.57 259.174 219.227 259.705 218.977C260.247 218.727 260.835 218.602 261.476 218.602C262.153 218.602 262.757 218.737 263.288 218.997C263.83 219.247 264.278 219.596 264.643 220.039C265.002 220.471 265.278 220.977 265.476 221.56C265.669 222.143 265.768 222.779 265.768 223.456C265.768 223.555 265.768 223.633 265.768 223.685C265.768 223.742 265.757 223.81 265.747 223.893H258.455C258.507 224.393 258.627 224.841 258.809 225.227C259.002 225.602 259.247 225.93 259.538 226.206C259.83 226.471 260.153 226.674 260.518 226.81C260.893 226.935 261.288 226.997 261.705 226.997C262.34 226.997 262.882 226.883 263.33 226.643C263.788 226.409 264.205 226.096 264.58 225.706L265.434 226.477C264.976 226.992 264.445 227.409 263.851 227.727C263.268 228.029 262.538 228.185 261.663 228.185ZM264.372 222.872C264.34 222.471 264.257 222.081 264.122 221.706C263.981 221.32 263.788 220.987 263.538 220.706C263.299 220.414 263.007 220.185 262.663 220.018C262.314 219.852 261.913 219.768 261.455 219.768C261.049 219.768 260.674 219.852 260.33 220.018C259.981 220.174 259.674 220.388 259.413 220.664C259.163 220.945 258.955 221.268 258.788 221.643C258.622 222.018 258.507 222.43 258.455 222.872H264.372Z" fill="#444142"/>
<path d="M273.273 228.185C272.59 228.185 271.965 228.06 271.398 227.81C270.825 227.56 270.325 227.221 269.898 226.789C269.481 226.346 269.153 225.841 268.919 225.268C268.679 224.685 268.564 224.076 268.564 223.435V223.393C268.564 222.742 268.679 222.133 268.919 221.56C269.153 220.977 269.481 220.471 269.898 220.039C270.325 219.596 270.825 219.247 271.398 218.997C271.965 218.737 272.59 218.602 273.273 218.602C273.7 218.602 274.09 218.643 274.439 218.727C274.799 218.81 275.127 218.93 275.419 219.081C275.721 219.221 276.002 219.393 276.252 219.602C276.502 219.799 276.731 220.013 276.939 220.247L276.044 221.206C275.669 220.82 275.262 220.492 274.835 220.227C274.403 219.951 273.877 219.81 273.252 219.81C272.794 219.81 272.361 219.904 271.96 220.081C271.554 220.263 271.2 220.513 270.898 220.831C270.606 221.154 270.377 221.534 270.21 221.977C270.044 222.409 269.96 222.867 269.96 223.352V223.393C269.96 223.893 270.044 224.362 270.21 224.789C270.387 225.221 270.627 225.602 270.919 225.935C271.221 226.258 271.575 226.508 271.981 226.685C272.398 226.867 272.846 226.956 273.335 226.956C273.929 226.956 274.45 226.831 274.898 226.581C275.356 226.32 275.773 225.992 276.148 225.602L277.023 226.414C276.549 226.945 276.023 227.372 275.439 227.706C274.856 228.023 274.132 228.185 273.273 228.185Z" fill="#444142"/>
<path d="M280.238 215.02H281.613V220.395C281.915 219.895 282.322 219.473 282.822 219.124C283.322 218.78 283.967 218.603 284.759 218.603C285.311 218.603 285.806 218.697 286.238 218.874C286.665 219.056 287.03 219.311 287.322 219.645C287.624 219.967 287.853 220.348 288.009 220.79C288.176 221.238 288.259 221.738 288.259 222.29V227.978H286.905V222.624C286.905 221.764 286.681 221.092 286.238 220.603C285.806 220.103 285.181 219.853 284.363 219.853C283.973 219.853 283.603 219.926 283.259 220.061C282.926 220.186 282.634 220.384 282.384 220.645C282.134 220.895 281.936 221.202 281.801 221.561C281.676 221.91 281.613 222.301 281.613 222.728V227.978H280.238V215.02Z" fill="#444142"/>
<path d="M47.7447 87.8708C52.651 86.4593 57.6406 84.4854 62.6718 82.1052C62.6718 82.1104 62.677 82.1104 62.677 82.1156C62.8906 82.0114 63.1093 81.9072 63.3229 81.8031C63.3281 81.7979 63.3333 81.7979 63.3333 81.7979C64.0833 81.4385 64.8333 81.0687 65.5833 80.6937C105.474 60.6937 144.979 18.7666 180.401 11.4958C198.594 7.76141 215.417 9.59995 231.036 23.2093C218.099 1.66245 194.047 -1.22297 176.151 0.365575C131.463 4.32391 83.8749 54.7979 55.1718 71.0062C53.4062 72.001 51.7135 72.8708 50.0989 73.5895C22.1822 86.0062 9.08327 67.3864 17.1249 58.9333C24.8853 50.7666 36.8333 51.2927 54.6406 62.3135C59.4947 59.2822 64.9687 55.3135 70.7708 50.9229C56.2239 42.5166 42.552 37.3656 30.2864 37.6885C-17.3855 38.9645 -6.69798 103.517 47.7447 87.8708Z" fill="#0097B2"/>
<path d="M135.907 99.584C123.308 89.1777 110.792 78.8548 98.6204 69.709C92.4225 73.9225 86.1934 77.9694 79.9746 81.6257C90.0371 90.4173 101.355 101.381 114.068 114.657C176.058 179.386 270.115 149.256 273.37 77.459C275.188 37.4642 245.277 17.334 245.277 17.334C300.24 83.9017 212.298 162.693 135.907 99.584Z" fill="#062C66"/>
<path d="M15.0314 66.8493C14.3751 64.0056 15.0366 61.1254 17.1251 58.9327C24.8856 50.766 36.8335 51.2921 54.6408 62.3129C59.4949 59.2816 64.9689 55.3129 70.771 50.9223C65.7814 48.0368 60.8856 45.5316 56.1251 43.5056C35.4064 40.3077 9.34389 47.4952 15.0314 66.8493Z" fill="#062C66"/>
</svg>
