<svg width="289" height="232" viewBox="0 0 289 232" fill="none" xmlns="http://www.w3.org/2000/svg">
<mask id="mask0_1_402" style="mask-type:luminance" maskUnits="userSpaceOnUse" x="1" y="128" width="269" height="82">
<path d="M269.333 128H1.33334V209.333H269.333V128Z" fill="white"/>
</mask>
<g mask="url(#mask0_1_402)">
<path d="M9.91584 129.684V154.017H4.37417V129.684H9.91584Z" fill="#062C66"/>
<path d="M15.4325 154.017V129.684L30.6617 142.226L30.7242 129.684H36.2658V154.017L20.9742 141.517V154.017H15.4325Z" fill="#062C66"/>
<path d="M55.5775 129.684V134.538H47.015V139.392H54.9317V144.246H47.015V154.017H41.4734V129.684H55.5775Z" fill="#062C66"/>
<path d="M66.3265 129.684V154.017H60.7848V129.684H66.3265Z" fill="#062C66"/>
<path d="M71.8431 154.017V129.684L87.0723 142.226L87.1348 129.684H92.6765V154.017L77.3848 141.517V154.017H71.8431Z" fill="#062C66"/>
<path d="M24.0617 196.953C24.0617 196.953 23.8377 197.052 23.395 197.245C22.9471 197.443 22.2127 197.636 21.1867 197.828C20.171 198.021 18.7908 198.12 17.0408 198.12C15.3012 198.12 13.645 197.797 12.0617 197.162C10.4888 196.511 9.08771 195.61 7.85333 194.453C6.61375 193.302 5.63458 191.969 4.91583 190.453C4.2075 188.927 3.85333 187.297 3.85333 185.558C3.85333 183.808 4.2075 182.177 4.91583 180.662C5.62417 179.136 6.59292 177.787 7.8325 176.62C9.06687 175.453 10.4783 174.547 12.0617 173.891C13.645 173.24 15.3012 172.912 17.0408 172.912C18.7908 172.912 20.171 173.011 21.1867 173.203C22.2127 173.401 22.9471 173.594 23.395 173.787C23.8377 173.985 24.0617 174.078 24.0617 174.078L22.8742 179.537C22.8742 179.537 22.6502 179.443 22.2075 179.245C21.7596 179.052 21.1658 178.86 20.4158 178.662C19.6762 178.469 18.8377 178.37 17.895 178.37C16.4888 178.37 15.2804 178.589 14.27 179.016C13.2544 179.448 12.4158 180.016 11.7492 180.724C11.0929 181.433 10.6138 182.203 10.3117 183.037C10.02 183.87 9.87417 184.693 9.87417 185.495C9.87417 186.328 10.02 187.162 10.3117 187.995C10.6138 188.828 11.0929 189.599 11.7492 190.308C12.4158 191.016 13.2544 191.589 14.27 192.016C15.2804 192.448 16.4888 192.662 17.895 192.662C18.8377 192.662 19.6762 192.568 20.4158 192.37C21.1658 192.177 21.7596 191.985 22.2075 191.787C22.6502 191.594 22.8742 191.495 22.8742 191.495L24.0617 196.953Z" fill="#062C66"/>
<path d="M34.0798 185.495C34.0798 186.761 34.3767 187.922 34.9756 188.974C35.5694 190.016 36.3767 190.86 37.3923 191.495C38.4183 192.136 39.5642 192.453 40.8298 192.453C42.0902 192.453 43.2256 192.136 44.2256 191.495C45.236 190.86 46.0433 190.016 46.6423 188.974C47.2517 187.922 47.559 186.761 47.559 185.495C47.559 184.245 47.2517 183.094 46.6423 182.037C46.0433 180.985 45.236 180.141 44.2256 179.516C43.2256 178.881 42.0902 178.558 40.8298 178.558C39.5642 178.558 38.4183 178.881 37.3923 179.516C36.3767 180.141 35.5694 180.985 34.9756 182.037C34.3767 183.094 34.0798 184.245 34.0798 185.495ZM28.559 185.495C28.559 183.787 28.8715 182.177 29.4965 180.662C30.1319 179.151 31.0069 177.808 32.1215 176.641C33.2465 175.464 34.5485 174.547 36.0381 173.891C37.5225 173.24 39.1215 172.912 40.8298 172.912C42.5381 172.912 44.1319 173.24 45.6215 173.891C47.1058 174.547 48.4027 175.464 49.5173 176.641C50.6267 177.808 51.4965 179.151 52.1215 180.662C52.7569 182.177 53.0798 183.787 53.0798 185.495C53.0798 187.203 52.7569 188.823 52.1215 190.349C51.4965 191.881 50.6267 193.224 49.5173 194.391C48.4027 195.547 47.1058 196.453 45.6215 197.12C44.1319 197.787 42.5381 198.12 40.8298 198.12C39.1215 198.12 37.5225 197.787 36.0381 197.12C34.5485 196.453 33.2465 195.547 32.1215 194.391C31.0069 193.224 30.1319 191.881 29.4965 190.349C28.8715 188.823 28.559 187.203 28.559 185.495Z" fill="#062C66"/>
<path d="M58.1302 197.683V173.349L73.3594 185.891L73.4219 173.349H78.9635V197.683L63.6719 185.183V197.683H58.1302Z" fill="#062C66"/>
<path d="M86.5877 190.245C87.2127 190.703 87.9419 191.131 88.7752 191.516C89.619 191.891 90.4679 192.193 91.3169 192.412C92.1607 192.62 92.9419 192.719 93.6502 192.703C94.369 192.677 94.9523 192.506 95.4002 192.183C95.8429 191.865 96.0669 191.339 96.0669 190.599C96.0669 189.948 95.8169 189.37 95.3169 188.87C94.8273 188.37 94.1971 187.901 93.4211 187.453C92.6554 187.011 91.8429 186.568 90.9836 186.12C90.119 185.662 89.3013 185.162 88.5252 184.62C87.7596 184.078 87.1346 183.464 86.6502 182.766C86.1763 182.073 85.9419 181.261 85.9419 180.328C85.9419 179.287 86.1607 178.276 86.6086 177.287C87.0513 176.287 87.7023 175.422 88.5669 174.683C89.4263 173.948 90.4836 173.427 91.7336 173.12C92.9836 172.802 94.4211 172.797 96.0461 173.099C97.6711 173.407 99.4627 174.11 101.421 175.203L99.1919 179.62C98.2596 178.844 97.3377 178.328 96.4211 178.078C95.5148 177.828 94.6763 177.782 93.9002 177.933C93.1346 178.089 92.5252 178.365 92.0669 178.766C91.6086 179.172 91.3794 179.62 91.3794 180.12C91.3794 180.578 91.6294 180.99 92.1294 181.349C92.6398 181.714 93.3065 182.078 94.1294 182.453C94.9471 182.818 95.8169 183.219 96.7336 183.662C97.6607 184.11 98.5304 184.631 99.3377 185.224C100.155 185.823 100.822 186.532 101.338 187.349C101.864 188.157 102.129 189.136 102.129 190.287C102.129 191.443 101.817 192.558 101.192 193.641C100.567 194.724 99.6919 195.662 98.5669 196.453C97.4419 197.235 96.1086 197.745 94.5669 197.995C93.0357 198.256 91.3638 198.162 89.5461 197.703C87.7232 197.261 85.8169 196.328 83.8169 194.912L86.5877 190.245Z" fill="#062C66"/>
<path d="M125.837 173.349V189.037C125.837 192.052 125.024 194.323 123.399 195.849C121.785 197.365 119.431 198.12 116.337 198.12C113.238 198.12 110.884 197.365 109.274 195.849C107.66 194.323 106.858 192.052 106.858 189.037V173.349H112.399V187.412C112.399 188.776 112.53 189.839 112.795 190.599C113.071 191.365 113.504 191.901 114.087 192.203C114.681 192.511 115.431 192.662 116.337 192.662C117.254 192.662 117.993 192.511 118.566 192.203C119.149 191.901 119.577 191.365 119.858 190.599C120.149 189.839 120.295 188.776 120.295 187.412V173.349H125.837Z" fill="#062C66"/>
<path d="M136.493 173.349V192.808H144.868V197.683H130.93V173.349H136.493Z" fill="#062C66"/>
<path d="M149.394 178.203V173.349H166.499V178.203H160.728V197.683H155.186V178.203H149.394Z" fill="#062C66"/>
<path d="M185.388 173.349L195.242 197.683H189.284L187.45 192.808H178.18L176.409 197.683H170.45L180.242 173.349H185.388ZM185.555 187.953L182.784 180.87L180.075 187.953H185.555Z" fill="#062C66"/>
<path d="M199.849 197.683V173.349L215.078 185.891L215.14 173.349H220.682V197.683L205.39 185.183V197.683H199.849Z" fill="#062C66"/>
<path d="M225.473 178.203V173.349H242.577V178.203H236.806V197.683H231.264V178.203H225.473Z" fill="#062C66"/>
<path d="M249.508 190.245C250.133 190.703 250.862 191.131 251.695 191.516C252.539 191.891 253.388 192.193 254.237 192.412C255.081 192.62 255.862 192.719 256.57 192.703C257.289 192.677 257.872 192.506 258.32 192.183C258.763 191.865 258.987 191.339 258.987 190.599C258.987 189.948 258.737 189.37 258.237 188.87C257.747 188.37 257.117 187.901 256.341 187.453C255.576 187.011 254.763 186.568 253.904 186.12C253.039 185.662 252.221 185.162 251.445 184.62C250.68 184.078 250.055 183.464 249.57 182.766C249.096 182.073 248.862 181.261 248.862 180.328C248.862 179.287 249.081 178.276 249.529 177.287C249.971 176.287 250.622 175.422 251.487 174.683C252.346 173.948 253.404 173.427 254.654 173.12C255.904 172.802 257.341 172.797 258.966 173.099C260.591 173.407 262.383 174.11 264.341 175.203L262.112 179.62C261.18 178.844 260.258 178.328 259.341 178.078C258.435 177.828 257.596 177.782 256.82 177.933C256.055 178.089 255.445 178.365 254.987 178.766C254.529 179.172 254.3 179.62 254.3 180.12C254.3 180.578 254.55 180.99 255.05 181.349C255.56 181.714 256.227 182.078 257.05 182.453C257.867 182.818 258.737 183.219 259.654 183.662C260.581 184.11 261.451 184.631 262.258 185.224C263.076 185.823 263.742 186.532 264.258 187.349C264.784 188.157 265.05 189.136 265.05 190.287C265.05 191.443 264.737 192.558 264.112 193.641C263.487 194.724 262.612 195.662 261.487 196.453C260.362 197.235 259.029 197.745 257.487 197.995C255.956 198.256 254.284 198.162 252.466 197.703C250.643 197.261 248.737 196.328 246.737 194.912L249.508 190.245Z" fill="#062C66"/>
</g>
<path d="M8.52 215.982H9.8325L15.4992 228.503H13.9783L12.5408 225.211H5.77L4.29083 228.503H2.85333L8.52 215.982ZM11.9783 223.961L9.16583 217.628L6.31167 223.961H11.9783Z" fill="#062C66"/>
<path d="M22.8315 228.711C22.1492 228.711 21.5242 228.586 20.9565 228.336C20.3836 228.086 19.8836 227.747 19.4565 227.315C19.0398 226.872 18.7117 226.367 18.4773 225.794C18.2377 225.211 18.1231 224.602 18.1231 223.961V223.919C18.1231 223.268 18.2377 222.659 18.4773 222.086C18.7117 221.503 19.0398 220.997 19.4565 220.565C19.8836 220.122 20.3836 219.773 20.9565 219.523C21.5242 219.263 22.1492 219.128 22.8315 219.128C23.2586 219.128 23.6492 219.169 23.9981 219.253C24.3575 219.336 24.6856 219.456 24.9773 219.607C25.2794 219.747 25.5606 219.919 25.8106 220.128C26.0606 220.325 26.2898 220.539 26.4981 220.773L25.6023 221.732C25.2273 221.346 24.8211 221.018 24.394 220.753C23.9617 220.477 23.4356 220.336 22.8106 220.336C22.3523 220.336 21.92 220.43 21.519 220.607C21.1127 220.789 20.7586 221.039 20.4565 221.357C20.1648 221.68 19.9356 222.06 19.769 222.503C19.6023 222.935 19.519 223.393 19.519 223.878V223.919C19.519 224.419 19.6023 224.888 19.769 225.315C19.9461 225.747 20.1856 226.128 20.4773 226.461C20.7794 226.784 21.1336 227.034 21.5398 227.211C21.9565 227.393 22.4044 227.482 22.894 227.482C23.4877 227.482 24.0086 227.357 24.4565 227.107C24.9148 226.846 25.3315 226.518 25.7065 226.128L26.5815 226.94C26.1075 227.471 25.5815 227.898 24.9981 228.232C24.4148 228.549 23.6909 228.711 22.8315 228.711Z" fill="#062C66"/>
<path d="M33.9432 228.711C33.2609 228.711 32.6359 228.586 32.0682 228.336C31.4953 228.086 30.9953 227.747 30.5682 227.315C30.1515 226.872 29.8234 226.367 29.589 225.794C29.3495 225.211 29.2349 224.602 29.2349 223.961V223.919C29.2349 223.268 29.3495 222.659 29.589 222.086C29.8234 221.503 30.1515 220.997 30.5682 220.565C30.9953 220.122 31.4953 219.773 32.0682 219.523C32.6359 219.263 33.2609 219.128 33.9432 219.128C34.3703 219.128 34.7609 219.169 35.1099 219.253C35.4692 219.336 35.7974 219.456 36.089 219.607C36.3911 219.747 36.6724 219.919 36.9224 220.128C37.1724 220.325 37.4015 220.539 37.6099 220.773L36.714 221.732C36.339 221.346 35.9328 221.018 35.5057 220.753C35.0734 220.477 34.5474 220.336 33.9224 220.336C33.464 220.336 33.0317 220.43 32.6307 220.607C32.2245 220.789 31.8703 221.039 31.5682 221.357C31.2765 221.68 31.0474 222.06 30.8807 222.503C30.714 222.935 30.6307 223.393 30.6307 223.878V223.919C30.6307 224.419 30.714 224.888 30.8807 225.315C31.0578 225.747 31.2974 226.128 31.589 226.461C31.8911 226.784 32.2453 227.034 32.6515 227.211C33.0682 227.393 33.5161 227.482 34.0057 227.482C34.5995 227.482 35.1203 227.357 35.5682 227.107C36.0265 226.846 36.4432 226.518 36.8182 226.128L37.6932 226.94C37.2192 227.471 36.6932 227.898 36.1099 228.232C35.5265 228.549 34.8026 228.711 33.9432 228.711Z" fill="#062C66"/>
<path d="M45.0966 228.711C44.4143 228.711 43.7841 228.586 43.2008 228.336C42.6174 228.086 42.107 227.747 41.6799 227.315C41.2633 226.872 40.9351 226.367 40.7008 225.794C40.4612 225.227 40.3466 224.617 40.3466 223.961V223.919C40.3466 223.268 40.4612 222.659 40.7008 222.086C40.9351 221.503 41.2633 220.997 41.6799 220.565C42.107 220.122 42.6174 219.773 43.2008 219.523C43.7945 219.263 44.4403 219.128 45.1383 219.128C45.8153 219.128 46.4508 219.263 47.0341 219.523C47.6278 219.773 48.1383 220.117 48.5549 220.544C48.982 220.977 49.3153 221.482 49.5549 222.065C49.7893 222.638 49.9091 223.242 49.9091 223.878V223.919C49.9091 224.575 49.7841 225.19 49.5341 225.773C49.2945 226.357 48.9612 226.872 48.5341 227.315C48.1174 227.747 47.607 228.086 47.0133 228.336C46.4299 228.586 45.7893 228.711 45.0966 228.711ZM45.1383 227.482C45.6383 227.482 46.0862 227.393 46.4924 227.211C46.9091 227.018 47.2633 226.763 47.5549 226.44C47.857 226.122 48.0966 225.753 48.2633 225.336C48.4299 224.909 48.5133 224.45 48.5133 223.961V223.919C48.5133 223.419 48.4195 222.956 48.2424 222.523C48.0758 222.096 47.8362 221.721 47.5341 221.398C47.2268 221.065 46.8674 220.81 46.4508 220.628C46.0341 220.435 45.581 220.336 45.0966 220.336C44.607 220.336 44.1591 220.435 43.7424 220.628C43.3258 220.81 42.9716 221.06 42.6799 221.378C42.3883 221.7 42.1591 222.081 41.9924 222.523C41.8258 222.956 41.7424 223.409 41.7424 223.878V223.919C41.7424 224.419 41.8258 224.888 41.9924 225.315C42.1695 225.747 42.4091 226.122 42.7008 226.44C43.0028 226.763 43.3674 227.018 43.7841 227.211C44.2008 227.393 44.6487 227.482 45.1383 227.482Z" fill="#062C66"/>
<path d="M56.7271 228.69C56.1698 228.69 55.675 228.607 55.2479 228.44C54.8156 228.263 54.4458 228.013 54.1437 227.69C53.8364 227.357 53.6021 226.971 53.4354 226.523C53.2791 226.065 53.2062 225.565 53.2062 225.023V219.336H54.5812V224.69C54.5812 225.539 54.7948 226.211 55.2271 226.711C55.6698 227.211 56.3 227.461 57.1229 227.461C57.5083 227.461 57.8729 227.393 58.2062 227.253C58.55 227.117 58.8416 226.919 59.0812 226.669C59.3312 226.409 59.5239 226.102 59.6646 225.753C59.8 225.393 59.8729 225.003 59.8729 224.586V219.336H61.2271V228.503H59.8729V226.898C59.5656 227.398 59.1646 227.825 58.6646 228.169C58.1646 228.513 57.5187 228.69 56.7271 228.69Z" fill="#062C66"/>
<path d="M65.2625 219.336H66.6375V220.919C66.9396 220.419 67.3459 219.997 67.8459 219.648C68.3459 219.305 68.9917 219.128 69.7834 219.128C70.3355 219.128 70.8302 219.221 71.2625 219.398C71.6896 219.581 72.0542 219.836 72.3459 220.169C72.648 220.492 72.8771 220.872 73.0334 221.315C73.2 221.763 73.2834 222.263 73.2834 222.815V228.503H71.9292V223.148C71.9292 222.289 71.7052 221.617 71.2625 221.128C70.8302 220.628 70.2052 220.378 69.3875 220.378C68.9969 220.378 68.6271 220.45 68.2834 220.586C67.95 220.711 67.6584 220.909 67.4084 221.169C67.1584 221.419 66.9605 221.727 66.825 222.086C66.7 222.435 66.6375 222.825 66.6375 223.253V228.503H65.2625V219.336Z" fill="#062C66"/>
<path d="M80.2564 228.669C79.8814 228.669 79.5324 228.617 79.2147 228.523C78.8918 228.43 78.6157 228.273 78.3814 228.065C78.1574 227.857 77.9751 227.596 77.8397 227.273C77.7147 226.94 77.6522 226.539 77.6522 226.065V220.523H76.3814V219.336H77.6522V216.565H79.0272V219.336H81.9439V220.523H79.0272V225.898C79.0272 226.471 79.1626 226.867 79.4439 227.086C79.7355 227.31 80.1105 227.419 80.5689 227.419C80.8032 227.419 81.0272 227.398 81.2355 227.357C81.4439 227.305 81.6626 227.221 81.9022 227.107V228.273C81.6626 228.398 81.4126 228.497 81.1522 228.565C80.8866 228.633 80.5897 228.669 80.2564 228.669Z" fill="#062C66"/>
<path d="M85.3621 215.815H86.9246V217.315H85.3621V215.815ZM85.4455 219.336H86.8205V228.503H85.4455V219.336Z" fill="#062C66"/>
<path d="M90.9652 219.336H92.3402V220.919C92.6423 220.419 93.0485 219.997 93.5485 219.648C94.0485 219.305 94.6944 219.128 95.486 219.128C96.0381 219.128 96.5329 219.221 96.9652 219.398C97.3923 219.581 97.7569 219.836 98.0485 220.169C98.3506 220.492 98.5798 220.872 98.736 221.315C98.9027 221.763 98.986 222.263 98.986 222.815V228.503H97.6319V223.148C97.6319 222.289 97.4079 221.617 96.9652 221.128C96.5329 220.628 95.9079 220.378 95.0902 220.378C94.6996 220.378 94.3298 220.45 93.986 220.586C93.6527 220.711 93.361 220.909 93.111 221.169C92.861 221.419 92.6631 221.727 92.5277 222.086C92.4027 222.435 92.3402 222.825 92.3402 223.253V228.503H90.9652V219.336Z" fill="#062C66"/>
<path d="M106.938 231.378C106.173 231.378 105.438 231.263 104.73 231.044C104.032 230.836 103.381 230.523 102.772 230.107L103.397 229.044C103.923 229.419 104.48 229.7 105.063 229.898C105.647 230.107 106.272 230.211 106.938 230.211C107.949 230.211 108.756 229.93 109.355 229.378C109.964 228.836 110.272 228.023 110.272 226.94V225.857C109.865 226.388 109.376 226.846 108.792 227.232C108.209 227.607 107.501 227.794 106.667 227.794C106.11 227.794 105.574 227.7 105.063 227.503C104.548 227.294 104.089 227.003 103.688 226.628C103.282 226.253 102.959 225.805 102.709 225.273C102.469 224.747 102.355 224.159 102.355 223.503V223.461C102.355 222.784 102.469 222.18 102.709 221.648C102.959 221.122 103.282 220.669 103.688 220.294C104.089 219.919 104.548 219.638 105.063 219.44C105.589 219.232 106.126 219.128 106.667 219.128C107.084 219.128 107.469 219.185 107.834 219.294C108.193 219.393 108.522 219.523 108.813 219.69C109.105 219.846 109.365 220.039 109.605 220.273C109.839 220.497 110.053 220.732 110.251 220.982V219.336H111.605V226.898C111.605 227.607 111.501 228.232 111.292 228.773C111.094 229.315 110.813 229.773 110.438 230.148C110.022 230.565 109.511 230.867 108.917 231.065C108.334 231.273 107.673 231.378 106.938 231.378ZM106.938 226.586C107.365 226.586 107.782 226.518 108.188 226.378C108.589 226.227 108.943 226.013 109.251 225.732C109.568 225.456 109.818 225.128 110.001 224.753C110.193 224.367 110.292 223.94 110.292 223.482V223.44C110.292 222.971 110.193 222.544 110.001 222.169C109.818 221.794 109.568 221.471 109.251 221.19C108.943 220.914 108.589 220.706 108.188 220.565C107.782 220.414 107.365 220.336 106.938 220.336C106.49 220.336 106.074 220.414 105.688 220.565C105.313 220.706 104.98 220.914 104.688 221.19C104.397 221.456 104.167 221.773 104.001 222.148C103.834 222.523 103.751 222.95 103.751 223.419V223.461C103.751 223.919 103.834 224.346 104.001 224.732C104.178 225.122 104.407 225.456 104.688 225.732C104.98 225.997 105.318 226.206 105.709 226.357C106.094 226.513 106.506 226.586 106.938 226.586Z" fill="#062C66"/>
<path d="M122.523 214.336H123.69V230.773H122.523V214.336Z" fill="#062C66"/>
<path d="M134.95 216.086H136.367V228.503H134.95V216.086Z" fill="#062C66"/>
<path d="M140.737 219.336H142.112V220.919C142.415 220.419 142.821 219.997 143.321 219.648C143.821 219.305 144.467 219.128 145.258 219.128C145.81 219.128 146.305 219.221 146.737 219.398C147.165 219.581 147.529 219.836 147.821 220.169C148.123 220.492 148.352 220.872 148.508 221.315C148.675 221.763 148.758 222.263 148.758 222.815V228.503H147.404V223.148C147.404 222.289 147.18 221.617 146.737 221.128C146.305 220.628 145.68 220.378 144.862 220.378C144.472 220.378 144.102 220.45 143.758 220.586C143.425 220.711 143.133 220.909 142.883 221.169C142.633 221.419 142.435 221.727 142.3 222.086C142.175 222.435 142.112 222.825 142.112 223.253V228.503H140.737V219.336Z" fill="#062C66"/>
<path d="M155.69 228.69C155.023 228.69 154.346 228.57 153.669 228.336C153.002 228.086 152.408 227.753 151.898 227.336L152.585 226.357C153.085 226.732 153.596 227.023 154.127 227.232C154.669 227.43 155.21 227.523 155.752 227.523C156.304 227.523 156.763 227.398 157.127 227.148C157.486 226.888 157.669 226.523 157.669 226.065V226.044C157.669 225.81 157.606 225.617 157.481 225.461C157.356 225.294 157.179 225.148 156.96 225.023C156.752 224.898 156.507 224.789 156.231 224.69C155.95 224.596 155.669 224.503 155.377 224.419C155.013 224.31 154.653 224.19 154.294 224.065C153.929 223.94 153.606 223.789 153.315 223.607C153.023 223.414 152.783 223.18 152.606 222.898C152.424 222.607 152.335 222.253 152.335 221.836V221.794C152.335 221.409 152.408 221.055 152.565 220.732C152.716 220.398 152.929 220.122 153.21 219.898C153.486 219.664 153.82 219.482 154.21 219.357C154.596 219.232 155.013 219.169 155.46 219.169C156.028 219.169 156.596 219.263 157.169 219.44C157.752 219.622 158.278 219.867 158.752 220.169L158.148 221.211C157.716 220.935 157.263 220.721 156.794 220.565C156.335 220.398 155.877 220.315 155.419 220.315C154.877 220.315 154.445 220.45 154.127 220.711C153.804 220.961 153.648 221.273 153.648 221.648V221.69C153.648 221.898 153.71 222.086 153.835 222.253C153.971 222.409 154.148 222.544 154.356 222.669C154.575 222.784 154.825 222.888 155.106 222.982C155.398 223.081 155.695 223.18 156.002 223.273C156.361 223.372 156.716 223.492 157.065 223.628C157.408 223.753 157.721 223.919 158.002 224.128C158.294 224.325 158.523 224.565 158.69 224.857C158.867 225.138 158.96 225.482 158.96 225.898V225.919C158.96 226.367 158.867 226.763 158.69 227.107C158.523 227.44 158.294 227.727 158.002 227.961C157.71 228.2 157.361 228.378 156.96 228.503C156.57 228.628 156.148 228.69 155.69 228.69Z" fill="#062C66"/>
<path d="M162.506 215.815H164.068V217.315H162.506V215.815ZM162.589 219.336H163.964V228.503H162.589V219.336Z" fill="#062C66"/>
<path d="M172.171 231.378C171.406 231.378 170.671 231.263 169.963 231.044C169.265 230.836 168.614 230.523 168.004 230.107L168.629 229.044C169.156 229.419 169.713 229.7 170.296 229.898C170.879 230.107 171.504 230.211 172.171 230.211C173.182 230.211 173.989 229.93 174.588 229.378C175.197 228.836 175.504 228.023 175.504 226.94V225.857C175.098 226.388 174.609 226.846 174.025 227.232C173.442 227.607 172.734 227.794 171.9 227.794C171.343 227.794 170.807 227.7 170.296 227.503C169.781 227.294 169.322 227.003 168.921 226.628C168.515 226.253 168.192 225.805 167.942 225.273C167.702 224.747 167.588 224.159 167.588 223.503V223.461C167.588 222.784 167.702 222.18 167.942 221.648C168.192 221.122 168.515 220.669 168.921 220.294C169.322 219.919 169.781 219.638 170.296 219.44C170.822 219.232 171.359 219.128 171.9 219.128C172.317 219.128 172.702 219.185 173.067 219.294C173.426 219.393 173.754 219.523 174.046 219.69C174.338 219.846 174.598 220.039 174.838 220.273C175.072 220.497 175.286 220.732 175.484 220.982V219.336H176.838V226.898C176.838 227.607 176.734 228.232 176.525 228.773C176.327 229.315 176.046 229.773 175.671 230.148C175.254 230.565 174.744 230.867 174.15 231.065C173.567 231.273 172.906 231.378 172.171 231.378ZM172.171 226.586C172.598 226.586 173.015 226.518 173.421 226.378C173.822 226.227 174.176 226.013 174.484 225.732C174.801 225.456 175.051 225.128 175.234 224.753C175.426 224.367 175.525 223.94 175.525 223.482V223.44C175.525 222.971 175.426 222.544 175.234 222.169C175.051 221.794 174.801 221.471 174.484 221.19C174.176 220.914 173.822 220.706 173.421 220.565C173.015 220.414 172.598 220.336 172.171 220.336C171.723 220.336 171.307 220.414 170.921 220.565C170.546 220.706 170.213 220.914 169.921 221.19C169.629 221.456 169.4 221.773 169.234 222.148C169.067 222.523 168.984 222.95 168.984 223.419V223.461C168.984 223.919 169.067 224.346 169.234 224.732C169.411 225.122 169.64 225.456 169.921 225.732C170.213 225.997 170.551 226.206 170.942 226.357C171.327 226.513 171.739 226.586 172.171 226.586Z" fill="#062C66"/>
<path d="M180.871 215.544H182.246V220.919C182.548 220.419 182.954 219.997 183.454 219.648C183.954 219.305 184.6 219.128 185.392 219.128C185.944 219.128 186.439 219.221 186.871 219.398C187.298 219.581 187.663 219.836 187.954 220.169C188.257 220.492 188.486 220.872 188.642 221.315C188.809 221.763 188.892 222.263 188.892 222.815V228.503H187.538V223.148C187.538 222.289 187.314 221.617 186.871 221.128C186.439 220.628 185.814 220.378 184.996 220.378C184.605 220.378 184.236 220.45 183.892 220.586C183.559 220.711 183.267 220.909 183.017 221.169C182.767 221.419 182.569 221.727 182.434 222.086C182.309 222.435 182.246 222.825 182.246 223.253V228.503H180.871V215.544Z" fill="#062C66"/>
<path d="M195.865 228.669C195.49 228.669 195.141 228.617 194.823 228.523C194.5 228.43 194.224 228.273 193.99 228.065C193.766 227.857 193.584 227.596 193.448 227.273C193.323 226.94 193.261 226.539 193.261 226.065V220.523H191.99V219.336H193.261V216.565H194.636V219.336H197.552V220.523H194.636V225.898C194.636 226.471 194.771 226.867 195.052 227.086C195.344 227.31 195.719 227.419 196.177 227.419C196.412 227.419 196.636 227.398 196.844 227.357C197.052 227.305 197.271 227.221 197.511 227.107V228.273C197.271 228.398 197.021 228.497 196.761 228.565C196.495 228.633 196.198 228.669 195.865 228.669Z" fill="#062C66"/>
<path d="M207.814 214.336H208.981V230.773H207.814V214.336Z" fill="#062C66"/>
<path d="M220.116 216.086H229.053V217.378H221.533V221.815H228.262V223.086H221.533V228.503H220.116V216.086Z" fill="#062C66"/>
<path d="M232.549 215.815H234.111V217.315H232.549V215.815ZM232.632 219.336H234.007V228.503H232.632V219.336Z" fill="#062C66"/>
<path d="M238.152 219.336H239.527V220.919C239.829 220.419 240.235 219.997 240.735 219.648C241.235 219.305 241.881 219.128 242.673 219.128C243.225 219.128 243.72 219.221 244.152 219.398C244.579 219.581 244.944 219.836 245.235 220.169C245.537 220.492 245.766 220.872 245.923 221.315C246.089 221.763 246.173 222.263 246.173 222.815V228.503H244.819V223.148C244.819 222.289 244.595 221.617 244.152 221.128C243.72 220.628 243.095 220.378 242.277 220.378C241.886 220.378 241.516 220.45 241.173 220.586C240.839 220.711 240.548 220.909 240.298 221.169C240.048 221.419 239.85 221.727 239.714 222.086C239.589 222.435 239.527 222.825 239.527 223.253V228.503H238.152V219.336Z" fill="#062C66"/>
<path d="M253.146 228.669C252.771 228.669 252.422 228.617 252.104 228.523C251.781 228.43 251.505 228.273 251.271 228.065C251.047 227.857 250.864 227.596 250.729 227.273C250.604 226.94 250.542 226.539 250.542 226.065V220.523H249.271V219.336H250.542V216.565H251.917V219.336H254.833V220.523H251.917V225.898C251.917 226.471 252.052 226.867 252.333 227.086C252.625 227.31 253 227.419 253.458 227.419C253.693 227.419 253.917 227.398 254.125 227.357C254.333 227.305 254.552 227.221 254.792 227.107V228.273C254.552 228.398 254.302 228.497 254.042 228.565C253.776 228.633 253.479 228.669 253.146 228.669Z" fill="#062C66"/>
<path d="M262.231 228.711C261.606 228.711 261.012 228.596 260.46 228.378C259.903 228.143 259.418 227.815 259.001 227.398C258.585 226.982 258.251 226.482 258.001 225.898C257.762 225.305 257.647 224.648 257.647 223.94V223.898C257.647 223.247 257.757 222.628 257.981 222.044C258.199 221.461 258.507 220.956 258.897 220.523C259.283 220.096 259.741 219.753 260.272 219.503C260.814 219.253 261.403 219.128 262.043 219.128C262.72 219.128 263.324 219.263 263.856 219.523C264.397 219.773 264.845 220.122 265.21 220.565C265.569 220.997 265.845 221.503 266.043 222.086C266.236 222.669 266.335 223.305 266.335 223.982C266.335 224.081 266.335 224.159 266.335 224.211C266.335 224.268 266.324 224.336 266.314 224.419H259.022C259.074 224.919 259.194 225.367 259.376 225.753C259.569 226.128 259.814 226.456 260.106 226.732C260.397 226.997 260.72 227.2 261.085 227.336C261.46 227.461 261.856 227.523 262.272 227.523C262.908 227.523 263.449 227.409 263.897 227.169C264.356 226.935 264.772 226.622 265.147 226.232L266.001 227.003C265.543 227.518 265.012 227.935 264.418 228.253C263.835 228.555 263.106 228.711 262.231 228.711ZM264.939 223.398C264.908 222.997 264.824 222.607 264.689 222.232C264.548 221.846 264.356 221.513 264.106 221.232C263.866 220.94 263.574 220.711 263.231 220.544C262.882 220.378 262.481 220.294 262.022 220.294C261.616 220.294 261.241 220.378 260.897 220.544C260.548 220.7 260.241 220.914 259.981 221.19C259.731 221.471 259.522 221.794 259.356 222.169C259.189 222.544 259.074 222.956 259.022 223.398H264.939Z" fill="#062C66"/>
<path d="M273.84 228.711C273.158 228.711 272.533 228.586 271.965 228.336C271.392 228.086 270.892 227.747 270.465 227.315C270.048 226.872 269.72 226.367 269.486 225.794C269.246 225.211 269.132 224.602 269.132 223.961V223.919C269.132 223.268 269.246 222.659 269.486 222.086C269.72 221.503 270.048 220.997 270.465 220.565C270.892 220.122 271.392 219.773 271.965 219.523C272.533 219.263 273.158 219.128 273.84 219.128C274.267 219.128 274.658 219.169 275.007 219.253C275.366 219.336 275.694 219.456 275.986 219.607C276.288 219.747 276.569 219.919 276.819 220.128C277.069 220.325 277.298 220.539 277.507 220.773L276.611 221.732C276.236 221.346 275.83 221.018 275.403 220.753C274.97 220.477 274.444 220.336 273.819 220.336C273.361 220.336 272.929 220.43 272.528 220.607C272.121 220.789 271.767 221.039 271.465 221.357C271.173 221.68 270.944 222.06 270.778 222.503C270.611 222.935 270.528 223.393 270.528 223.878V223.919C270.528 224.419 270.611 224.888 270.778 225.315C270.955 225.747 271.194 226.128 271.486 226.461C271.788 226.784 272.142 227.034 272.548 227.211C272.965 227.393 273.413 227.482 273.903 227.482C274.496 227.482 275.017 227.357 275.465 227.107C275.923 226.846 276.34 226.518 276.715 226.128L277.59 226.94C277.116 227.471 276.59 227.898 276.007 228.232C275.423 228.549 274.699 228.711 273.84 228.711Z" fill="#062C66"/>
<path d="M280.806 215.544H282.181V220.919C282.483 220.419 282.889 219.997 283.389 219.648C283.889 219.305 284.535 219.128 285.327 219.128C285.879 219.128 286.374 219.221 286.806 219.398C287.233 219.581 287.598 219.836 287.889 220.169C288.191 220.492 288.421 220.872 288.577 221.315C288.743 221.763 288.827 222.263 288.827 222.815V228.503H287.473V223.148C287.473 222.289 287.249 221.617 286.806 221.128C286.374 220.628 285.749 220.378 284.931 220.378C284.54 220.378 284.171 220.45 283.827 220.586C283.493 220.711 283.202 220.909 282.952 221.169C282.702 221.419 282.504 221.727 282.368 222.086C282.243 222.435 282.181 222.825 282.181 223.253V228.503H280.806V215.544Z" fill="#062C66"/>
<mask id="mask1_1_402" style="mask-type:luminance" maskUnits="userSpaceOnUse" x="0" y="0" width="275" height="152">
<path d="M274.667 0H0V152H274.667V0Z" fill="white"/>
</mask>
<g mask="url(#mask1_1_402)">
<mask id="mask2_1_402" style="mask-type:luminance" maskUnits="userSpaceOnUse" x="0" y="0" width="232" height="92">
<path d="M0.161461 0.375H232V92H0.161461V0.375Z" fill="white"/>
</mask>
<g mask="url(#mask2_1_402)">
<path d="M48.3125 88.3958C53.2188 86.9844 58.2083 85.0104 63.2396 82.6302C63.2396 82.6354 63.2448 82.6354 63.2448 82.6406C63.4583 82.5365 63.6771 82.4323 63.8906 82.3281C63.8958 82.3229 63.901 82.3229 63.901 82.3229C64.651 81.9635 65.401 81.5938 66.151 81.2188C106.042 61.2188 145.547 19.2917 180.969 12.0208C199.161 8.28646 215.984 10.125 231.604 23.7344C218.667 2.18751 194.615 -0.697913 176.719 0.89063C132.031 4.84896 84.4427 55.3229 55.7396 71.5313C53.974 72.526 52.2813 73.3958 50.6667 74.1146C22.75 86.5313 9.65104 67.9115 17.6927 59.4583C25.4531 51.2917 37.401 51.8177 55.2083 62.8385C60.0625 59.8073 65.5365 55.8385 71.3385 51.4479C56.7917 43.0417 43.1198 37.8906 30.8542 38.2135C-16.8177 39.4896 -6.1302 104.042 48.3125 88.3958Z" fill="#0097B2"/>
</g>
<mask id="mask3_1_402" style="mask-type:luminance" maskUnits="userSpaceOnUse" x="80" y="17" width="195" height="135">
<path d="M80 17.3333H274.401V151.094H80V17.3333Z" fill="white"/>
</mask>
<g mask="url(#mask3_1_402)">
<path d="M136.474 100.109C123.875 89.7031 111.359 79.3802 99.1875 70.2344C92.9896 74.4479 86.7604 78.4948 80.5417 82.151C90.6042 90.9427 101.922 101.906 114.635 115.182C176.625 179.911 270.682 149.781 273.938 77.9844C275.755 37.9896 245.844 17.8594 245.844 17.8594C300.807 84.4271 212.865 163.219 136.474 100.109Z" fill="#062C66"/>
</g>
<path d="M15.599 67.375C14.9427 64.5312 15.6042 61.651 17.6927 59.4583C25.4531 51.2917 37.401 51.8177 55.2083 62.8385C60.0625 59.8073 65.5365 55.8385 71.3386 51.4479C66.349 48.5625 61.4531 46.0573 56.6927 44.0312C35.974 40.8333 9.91147 48.0208 15.599 67.375Z" fill="#062C66"/>
</g>
</svg>
